<svg width="229" height="158" viewBox="0 0 229 158" fill="none" xmlns="http://www.w3.org/2000/svg">
<rect x="0.626984" y="0.626984" width="226.968" height="156.746" rx="18.6005" fill="url(#paint0_linear_3008_4)" stroke="url(#paint1_linear_3008_4)" stroke-width="1.25397"/>
<path d="M17.942 25.5058V23.7912H26.1847V25.5058H17.942ZM23.4162 16.4137L29.0791 28.2114H26.8611L21.7173 17.2002H22.5195L17.3757 28.2114H15.1577L20.8206 16.4137H23.4162ZM37.6744 22.3597L37.8789 21.9036C38.8122 21.914 39.5725 22.0556 40.1598 22.3283C40.7575 22.6009 41.1927 22.968 41.4654 23.4294C41.7485 23.8908 41.8901 24.4099 41.8901 24.9867C41.8901 25.6159 41.738 26.1717 41.4339 26.6541C41.1403 27.1365 40.7051 27.5193 40.1283 27.8024C39.5515 28.0751 38.8332 28.2114 37.9732 28.2114H30.1081L31.0362 22.1552L30.1081 16.4137H37.6901C38.7807 16.4137 39.6197 16.6706 40.2069 17.1845C40.8047 17.6878 41.1036 18.3852 41.1036 19.2766C41.1036 19.7485 40.9882 20.2099 40.7575 20.6609C40.5373 21.1013 40.1755 21.4788 39.6721 21.7934C39.1792 22.0976 38.5133 22.2863 37.6744 22.3597ZM32.2002 27.6294L31.3979 26.544H37.7373C38.3875 26.544 38.8908 26.3972 39.2474 26.1036C39.6144 25.7994 39.798 25.3695 39.798 24.8137C39.798 24.2264 39.583 23.7702 39.153 23.4451C38.7335 23.12 38.1096 22.9575 37.2811 22.9575H32.1687V21.353H37.0766C37.6324 21.353 38.0938 21.2009 38.4609 20.8968C38.8279 20.5822 39.0114 20.1365 39.0114 19.5597C39.0114 19.1298 38.8594 18.7785 38.5553 18.5058C38.2511 18.2227 37.8107 18.0811 37.2339 18.0811H31.3979L32.2002 16.9957L33.0339 22.1552L32.2002 27.6294ZM49.1682 16.4137C50.5105 16.4137 51.6851 16.6601 52.6918 17.153C53.709 17.6459 54.5008 18.338 55.0671 19.2294C55.6334 20.1103 55.9165 21.138 55.9165 22.3125C55.9165 23.4871 55.6334 24.52 55.0671 25.4114C54.5008 26.2923 53.709 26.9792 52.6918 27.4721C51.6851 27.965 50.5105 28.2114 49.1682 28.2114H43.8356V16.4137H49.1682ZM45.912 27.4878L44.7637 26.3867H49.3098C50.2116 26.3867 50.9982 26.2189 51.6693 25.8833C52.351 25.5373 52.8753 25.0601 53.2424 24.4519C53.6199 23.8331 53.8087 23.12 53.8087 22.3125C53.8087 21.4946 53.6199 20.7815 53.2424 20.1732C52.8753 19.565 52.351 19.0931 51.6693 18.7575C50.9982 18.4114 50.2116 18.2384 49.3098 18.2384H44.7637L45.912 17.1373V27.4878ZM59.8567 23.1463C59.8567 23.8489 59.9983 24.4571 60.2814 24.971C60.5646 25.4848 60.9683 25.8833 61.4927 26.1665C62.0275 26.4391 62.662 26.5755 63.3961 26.5755C64.1406 26.5755 64.7751 26.4391 65.2994 26.1665C65.8238 25.8833 66.2275 25.4848 66.5107 24.971C66.7938 24.4571 66.9354 23.8489 66.9354 23.1463V16.4137H69.0118V23.2249C69.0118 24.2631 68.7758 25.1755 68.3039 25.962C67.832 26.738 67.1766 27.3463 66.3376 27.7867C65.4987 28.2167 64.5181 28.4317 63.3961 28.4317C62.2844 28.4317 61.3039 28.2167 60.4545 27.7867C59.6155 27.3463 58.9601 26.738 58.4882 25.962C58.0163 25.1755 57.7803 24.2631 57.7803 23.2249V16.4137H59.8567V23.1463ZM73.5784 16.4137V27.2833L72.6503 26.3867H81.5379V28.2114H71.502V16.4137H73.5784ZM90.2727 22.3597L90.4772 21.9036C91.4105 21.914 92.1708 22.0556 92.7581 22.3283C93.3558 22.6009 93.791 22.968 94.0637 23.4294C94.3469 23.8908 94.4884 24.4099 94.4884 24.9867C94.4884 25.6159 94.3364 26.1717 94.0322 26.6541C93.7386 27.1365 93.3034 27.5193 92.7266 27.8024C92.1498 28.0751 91.4315 28.2114 90.5716 28.2114H82.7064L83.6345 22.1552L82.7064 16.4137H90.2884C91.3791 16.4137 92.218 16.6706 92.8053 17.1845C93.403 17.6878 93.7019 18.3852 93.7019 19.2766C93.7019 19.7485 93.5866 20.2099 93.3558 20.6609C93.1356 21.1013 92.7738 21.4788 92.2704 21.7934C91.7776 22.0976 91.1116 22.2863 90.2727 22.3597ZM84.7985 27.6294L83.9963 26.544H90.3356C90.9858 26.544 91.4892 26.3972 91.8457 26.1036C92.2128 25.7994 92.3963 25.3695 92.3963 24.8137C92.3963 24.2264 92.1813 23.7702 91.7513 23.4451C91.3319 23.12 90.7079 22.9575 89.8794 22.9575H84.7671V21.353H89.6749C90.2307 21.353 90.6922 21.2009 91.0592 20.8968C91.4263 20.5822 91.6098 20.1365 91.6098 19.5597C91.6098 19.1298 91.4577 18.7785 91.1536 18.5058C90.8495 18.2227 90.409 18.0811 89.8322 18.0811H83.9963L84.7985 16.9957L85.6322 22.1552L84.7985 27.6294ZM102.569 28.4317C101.226 28.4317 100.047 28.1747 99.0295 27.6609C98.0122 27.147 97.2205 26.4339 96.6542 25.5215C96.0879 24.5987 95.8047 23.529 95.8047 22.3125C95.8047 21.0961 96.0879 20.0316 96.6542 19.1193C97.2205 18.1964 98.0122 17.4781 99.0295 16.9642C100.047 16.4504 101.226 16.1934 102.569 16.1934C103.911 16.1934 105.091 16.4504 106.108 16.9642C107.125 17.4781 107.917 18.1964 108.483 19.1193C109.05 20.0316 109.333 21.0961 109.333 22.3125C109.333 23.529 109.05 24.5987 108.483 25.5215C107.917 26.4339 107.125 27.147 106.108 27.6609C105.091 28.1747 103.911 28.4317 102.569 28.4317ZM102.569 26.5755C103.523 26.5755 104.346 26.4024 105.038 26.0564C105.731 25.7103 106.265 25.2174 106.643 24.5777C107.031 23.938 107.225 23.183 107.225 22.3125C107.225 21.4421 107.031 20.6871 106.643 20.0474C106.265 19.4077 105.731 18.9148 105.038 18.5687C104.346 18.2227 103.523 18.0496 102.569 18.0496C101.625 18.0496 100.802 18.2227 100.099 18.5687C99.407 18.9148 98.8669 19.4077 98.4789 20.0474C98.1014 20.6871 97.9126 21.4421 97.9126 22.3125C97.9126 23.183 98.1014 23.938 98.4789 24.5777C98.8669 25.2174 99.407 25.7103 100.099 26.0564C100.802 26.4024 101.625 26.5755 102.569 26.5755ZM112.797 21.7305H117.595C118.287 21.7305 118.833 21.5732 119.231 21.2586C119.64 20.944 119.845 20.514 119.845 19.9687C119.845 19.4129 119.64 18.983 119.231 18.6788C118.833 18.3642 118.287 18.2069 117.595 18.2069H112.498L113.427 17.0429V28.2114H111.35V16.4137H117.784C118.612 16.4137 119.336 16.5657 119.955 16.8698C120.584 17.1635 121.071 17.5777 121.418 18.1125C121.774 18.6369 121.952 19.2556 121.952 19.9687C121.952 20.6609 121.774 21.2743 121.418 21.8092C121.071 22.3335 120.584 22.7478 119.955 23.0519C119.336 23.3455 118.612 23.4923 117.784 23.4923H112.797V21.7305ZM115.125 22.6901H117.564L122.251 28.2114H119.766L115.125 22.6901ZM124.1 16.4137H126.177V28.2114H124.1V16.4137ZM133.315 28.2114V22.58H135.392V28.2114H133.315ZM127.747 16.4137H130.091L134.904 22.4541H133.787L138.601 16.4137H140.944L135.014 23.8541L133.693 23.8699L127.747 16.4137ZM17.942 42.5058V40.7912H26.1847V42.5058H17.942ZM23.4162 33.4137L29.0791 45.2114H26.8611L21.7173 34.2002H22.5195L17.3757 45.2114H15.1577L20.8206 33.4137H23.4162ZM37.6744 39.3597L37.8789 38.9036C38.8122 38.914 39.5725 39.0556 40.1598 39.3283C40.7575 39.6009 41.1927 39.968 41.4654 40.4294C41.7485 40.8908 41.8901 41.4099 41.8901 41.9867C41.8901 42.6159 41.738 43.1717 41.4339 43.6541C41.1403 44.1365 40.7051 44.5193 40.1283 44.8024C39.5515 45.0751 38.8332 45.2114 37.9732 45.2114H30.1081L31.0362 39.1552L30.1081 33.4137H37.6901C38.7807 33.4137 39.6197 33.6706 40.2069 34.1845C40.8047 34.6878 41.1036 35.3852 41.1036 36.2766C41.1036 36.7485 40.9882 37.2099 40.7575 37.6609C40.5373 38.1013 40.1755 38.4788 39.6721 38.7934C39.1792 39.0976 38.5133 39.2863 37.6744 39.3597ZM32.2002 44.6294L31.3979 43.544H37.7373C38.3875 43.544 38.8908 43.3972 39.2474 43.1036C39.6144 42.7994 39.798 42.3695 39.798 41.8137C39.798 41.2264 39.583 40.7702 39.153 40.4451C38.7335 40.12 38.1096 39.9575 37.2811 39.9575H32.1687V38.353H37.0766C37.6324 38.353 38.0938 38.2009 38.4609 37.8968C38.8279 37.5822 39.0114 37.1365 39.0114 36.5597C39.0114 36.1298 38.8594 35.7785 38.5553 35.5058C38.2511 35.2227 37.8107 35.0811 37.2339 35.0811H31.3979L32.2002 33.9957L33.0339 39.1552L32.2002 44.6294ZM49.1682 33.4137C50.5105 33.4137 51.6851 33.6601 52.6918 34.153C53.709 34.6459 54.5008 35.338 55.0671 36.2294C55.6334 37.1103 55.9165 38.138 55.9165 39.3125C55.9165 40.4871 55.6334 41.52 55.0671 42.4114C54.5008 43.2923 53.709 43.9792 52.6918 44.4721C51.6851 44.965 50.5105 45.2114 49.1682 45.2114H43.8356V33.4137H49.1682ZM45.912 44.4878L44.7637 43.3867H49.3098C50.2116 43.3867 50.9982 43.2189 51.6693 42.8833C52.351 42.5373 52.8753 42.0601 53.2424 41.4519C53.6199 40.8331 53.8087 40.12 53.8087 39.3125C53.8087 38.4946 53.6199 37.7815 53.2424 37.1732C52.8753 36.565 52.351 36.0931 51.6693 35.7575C50.9982 35.4114 50.2116 35.2384 49.3098 35.2384H44.7637L45.912 34.1373V44.4878ZM59.8567 40.1463C59.8567 40.8489 59.9983 41.4571 60.2814 41.971C60.5646 42.4848 60.9683 42.8833 61.4927 43.1665C62.0275 43.4391 62.662 43.5755 63.3961 43.5755C64.1406 43.5755 64.7751 43.4391 65.2994 43.1665C65.8238 42.8833 66.2275 42.4848 66.5107 41.971C66.7938 41.4571 66.9354 40.8489 66.9354 40.1463V33.4137H69.0118V40.2249C69.0118 41.2631 68.7758 42.1755 68.3039 42.962C67.832 43.738 67.1766 44.3463 66.3376 44.7867C65.4987 45.2167 64.5181 45.4317 63.3961 45.4317C62.2844 45.4317 61.3039 45.2167 60.4545 44.7867C59.6155 44.3463 58.9601 43.738 58.4882 42.962C58.0163 42.1755 57.7803 41.2631 57.7803 40.2249V33.4137H59.8567V40.1463ZM76.1424 40.7125H78.675L83.9132 46.0294H81.3334L76.1424 40.7125ZM77.6368 45.4317C76.2945 45.4317 75.1147 45.1747 74.0975 44.6609C73.0802 44.147 72.2885 43.4339 71.7222 42.5215C71.1559 41.5987 70.8728 40.529 70.8728 39.3125C70.8728 38.0961 71.1559 37.0316 71.7222 36.1193C72.2885 35.1964 73.0802 34.4781 74.0975 33.9642C75.1147 33.4504 76.2945 33.1934 77.6368 33.1934C78.9791 33.1934 80.1589 33.4504 81.1761 33.9642C82.1934 34.4781 82.9851 35.1964 83.5514 36.1193C84.1177 37.0316 84.4009 38.0961 84.4009 39.3125C84.4009 40.529 84.1177 41.5987 83.5514 42.5215C82.9851 43.4339 82.1934 44.147 81.1761 44.6609C80.1589 45.1747 78.9791 45.4317 77.6368 45.4317ZM77.6368 43.5755C78.5911 43.5755 79.4143 43.4024 80.1065 43.0564C80.7986 42.7103 81.3334 42.2174 81.711 41.5777C82.099 40.938 82.293 40.183 82.293 39.3125C82.293 38.4421 82.099 37.6871 81.711 37.0474C81.3334 36.4077 80.7986 35.9148 80.1065 35.5687C79.4143 35.2227 78.5911 35.0496 77.6368 35.0496C76.693 35.0496 75.8698 35.2227 75.1671 35.5687C74.475 35.9148 73.9349 36.4077 73.5469 37.0474C73.1694 37.6871 72.9806 38.4421 72.9806 39.3125C72.9806 40.183 73.1694 40.938 73.5469 41.5777C73.9349 42.2174 74.475 42.7103 75.1671 43.0564C75.8698 43.4024 76.693 43.5755 77.6368 43.5755ZM92.553 45.4317C91.2107 45.4317 90.0309 45.1747 89.0137 44.6609C87.9964 44.147 87.2047 43.4339 86.6384 42.5215C86.0721 41.5987 85.7889 40.529 85.7889 39.3125C85.7889 38.0961 86.0721 37.0316 86.6384 36.1193C87.2047 35.1964 87.9964 34.4781 89.0137 33.9642C90.0309 33.4504 91.2107 33.1934 92.553 33.1934C93.8953 33.1934 95.0751 33.4504 96.0923 33.9642C97.1095 34.4781 97.9013 35.1964 98.4676 36.1193C99.0339 37.0316 99.317 38.0961 99.317 39.3125C99.317 40.529 99.0339 41.5987 98.4676 42.5215C97.9013 43.4339 97.1095 44.147 96.0923 44.6609C95.0751 45.1747 93.8953 45.4317 92.553 45.4317ZM92.553 43.5755C93.5073 43.5755 94.3305 43.4024 95.0226 43.0564C95.7148 42.7103 96.2496 42.2174 96.6271 41.5777C97.0152 40.938 97.2092 40.183 97.2092 39.3125C97.2092 38.4421 97.0152 37.6871 96.6271 37.0474C96.2496 36.4077 95.7148 35.9148 95.0226 35.5687C94.3305 35.2227 93.5073 35.0496 92.553 35.0496C91.6092 35.0496 90.7859 35.2227 90.0833 35.5687C89.3912 35.9148 88.8511 36.4077 88.4631 37.0474C88.0856 37.6871 87.8968 38.4421 87.8968 39.3125C87.8968 40.183 88.0856 40.938 88.4631 41.5777C88.8511 42.2174 89.3912 42.7103 90.0833 43.0564C90.7859 43.4024 91.6092 43.5755 92.553 43.5755ZM106.667 33.4137C108.009 33.4137 109.184 33.6601 110.191 34.153C111.208 34.6459 112 35.338 112.566 36.2294C113.132 37.1103 113.415 38.138 113.415 39.3125C113.415 40.4871 113.132 41.52 112.566 42.4114C112 43.2923 111.208 43.9792 110.191 44.4721C109.184 44.965 108.009 45.2114 106.667 45.2114H101.334V33.4137H106.667ZM103.411 44.4878L102.262 43.3867H106.808C107.71 43.3867 108.497 43.2189 109.168 42.8833C109.85 42.5373 110.374 42.0601 110.741 41.4519C111.119 40.8331 111.307 40.12 111.307 39.3125C111.307 38.4946 111.119 37.7815 110.741 37.1732C110.374 36.565 109.85 36.0931 109.168 35.7575C108.497 35.4114 107.71 35.2384 106.808 35.2384H102.262L103.411 34.1373V44.4878ZM115.436 33.4137H117.513V45.2114H115.436V33.4137ZM121.6 38.7305H126.397C127.089 38.7305 127.635 38.5732 128.033 38.2586C128.442 37.944 128.647 37.514 128.647 36.9687C128.647 36.4129 128.442 35.983 128.033 35.6788C127.635 35.3642 127.089 35.2069 126.397 35.2069H121.301L122.229 34.0429V45.2114H120.152V33.4137H126.586C127.415 33.4137 128.138 33.5657 128.757 33.8698C129.386 34.1635 129.874 34.5777 130.22 35.1125C130.576 35.6369 130.755 36.2556 130.755 36.9687C130.755 37.6609 130.576 38.2743 130.22 38.8092C129.874 39.3335 129.386 39.7478 128.757 40.0519C128.138 40.3455 127.415 40.4923 126.586 40.4923H121.6V38.7305ZM123.928 39.6901H126.366L131.053 45.2114H128.568L123.928 39.6901ZM138.945 45.4317C137.603 45.4317 136.423 45.1747 135.406 44.6609C134.389 44.147 133.597 43.4339 133.031 42.5215C132.464 41.5987 132.181 40.529 132.181 39.3125C132.181 38.0961 132.464 37.0316 133.031 36.1193C133.597 35.1964 134.389 34.4781 135.406 33.9642C136.423 33.4504 137.603 33.1934 138.945 33.1934C140.288 33.1934 141.467 33.4504 142.485 33.9642C143.502 34.4781 144.294 35.1964 144.86 36.1193C145.426 37.0316 145.709 38.0961 145.709 39.3125C145.709 40.529 145.426 41.5987 144.86 42.5215C144.294 43.4339 143.502 44.147 142.485 44.6609C141.467 45.1747 140.288 45.4317 138.945 45.4317ZM138.945 43.5755C139.9 43.5755 140.723 43.4024 141.415 43.0564C142.107 42.7103 142.642 42.2174 143.019 41.5777C143.407 40.938 143.601 40.183 143.601 39.3125C143.601 38.4421 143.407 37.6871 143.019 37.0474C142.642 36.4077 142.107 35.9148 141.415 35.5687C140.723 35.2227 139.9 35.0496 138.945 35.0496C138.001 35.0496 137.178 35.2227 136.476 35.5687C135.783 35.9148 135.243 36.4077 134.855 37.0474C134.478 37.6871 134.289 38.4421 134.289 39.3125C134.289 40.183 134.478 40.938 134.855 41.5777C135.243 42.2174 135.783 42.7103 136.476 43.0564C137.178 43.4024 138.001 43.5755 138.945 43.5755ZM153.248 44.3305H152.272L157.353 33.4137H159.571L153.877 45.2114H151.565L145.87 33.4137H148.104L153.248 44.3305Z" fill="white"/>
<path d="M56.2942 86.5367C55.555 86.5367 54.8975 86.4167 54.3215 86.1768C53.7488 85.9336 53.2992 85.6024 52.9729 85.1833C52.6465 84.7641 52.4833 84.2889 52.4833 83.7578C52.4833 83.3482 52.5761 82.9722 52.7617 82.6299C52.9505 82.2843 53.2064 81.9979 53.5296 81.7708C53.8528 81.5404 54.2144 81.3932 54.6143 81.3292V81.262C54.0896 81.1564 53.664 80.902 53.3376 80.4989C53.0113 80.0925 52.8481 79.6205 52.8481 79.083C52.8481 78.5742 52.9969 78.1215 53.2944 77.7247C53.592 77.3247 54 77.0112 54.5183 76.784C55.0399 76.5536 55.6318 76.4384 56.2942 76.4384C56.9565 76.4384 57.5469 76.5536 58.0652 76.784C58.5868 77.0144 58.9963 77.3295 59.2939 77.7295C59.5915 78.1263 59.7419 78.5774 59.7451 79.083C59.7419 79.6237 59.5755 80.0957 59.2459 80.4989C58.9163 80.902 58.494 81.1564 57.9788 81.262V81.3292C58.3724 81.3932 58.7292 81.5404 59.0491 81.7708C59.3723 81.9979 59.6283 82.2843 59.8171 82.6299C60.009 82.9722 60.1066 83.3482 60.1098 83.7578C60.1066 84.2889 59.9418 84.7641 59.6155 85.1833C59.2891 85.6024 58.8379 85.9336 58.262 86.1768C57.6892 86.4167 57.0333 86.5367 56.2942 86.5367ZM56.2942 85.0105C56.6237 85.0105 56.9117 84.9513 57.1581 84.8329C57.4045 84.7113 57.5965 84.5449 57.734 84.3337C57.8748 84.1193 57.9452 83.873 57.9452 83.5946C57.9452 83.3098 57.8732 83.0586 57.7292 82.8411C57.5853 82.6203 57.3901 82.4475 57.1437 82.3227C56.8973 82.1947 56.6141 82.1307 56.2942 82.1307C55.9774 82.1307 55.6942 82.1947 55.4446 82.3227C55.1951 82.4475 54.9983 82.6203 54.8543 82.8411C54.7135 83.0586 54.6431 83.3098 54.6431 83.5946C54.6431 83.873 54.7119 84.1193 54.8495 84.3337C54.9871 84.5449 55.1807 84.7113 55.4302 84.8329C55.6798 84.9513 55.9678 85.0105 56.2942 85.0105ZM56.2942 80.6189C56.5693 80.6189 56.8141 80.5629 57.0285 80.4509C57.2429 80.3389 57.4109 80.1837 57.5325 79.9853C57.6541 79.7869 57.7148 79.5581 57.7148 79.299C57.7148 79.043 57.6541 78.819 57.5325 78.627C57.4109 78.4318 57.2445 78.2799 57.0333 78.1711C56.8221 78.0591 56.5757 78.0031 56.2942 78.0031C56.0158 78.0031 55.7694 78.0591 55.555 78.1711C55.3407 78.2799 55.1727 78.4318 55.0511 78.627C54.9327 78.819 54.8735 79.043 54.8735 79.299C54.8735 79.5581 54.9343 79.7869 55.0559 79.9853C55.1775 80.1837 55.3455 80.3389 55.5598 80.4509C55.7742 80.5629 56.019 80.6189 56.2942 80.6189ZM65.417 86.6183C64.5914 86.6151 63.8811 86.4119 63.286 86.0088C62.694 85.6056 62.238 85.0217 61.9181 84.2569C61.6013 83.4922 61.4445 82.5723 61.4477 81.4972C61.4477 80.4253 61.6061 79.5118 61.9229 78.7566C62.2428 78.0015 62.6988 77.4271 63.2908 77.0336C63.8859 76.6368 64.5946 76.4384 65.417 76.4384C66.2393 76.4384 66.9464 76.6368 67.5384 77.0336C68.1335 77.4303 68.5911 78.0063 68.9111 78.7614C69.231 79.5134 69.3894 80.4253 69.3862 81.4972C69.3862 82.5755 69.2262 83.497 68.9063 84.2617C68.5895 85.0265 68.1351 85.6104 67.5432 86.0136C66.9512 86.4167 66.2425 86.6183 65.417 86.6183ZM65.417 84.8953C65.9801 84.8953 66.4297 84.6121 66.7656 84.0458C67.1016 83.4794 67.268 82.6299 67.2648 81.4972C67.2648 80.7516 67.188 80.1309 67.0344 79.6349C66.884 79.139 66.6697 78.7662 66.3913 78.5166C66.1161 78.2671 65.7913 78.1423 65.417 78.1423C64.857 78.1423 64.4091 78.4222 64.0731 78.9822C63.7371 79.5422 63.5675 80.3805 63.5643 81.4972C63.5643 82.2523 63.6395 82.8827 63.7899 83.3882C63.9435 83.8906 64.1595 84.2681 64.4379 84.5209C64.7162 84.7705 65.0426 84.8953 65.417 84.8953ZM73.8054 84.9049V78.1087H75.5237V84.9049H73.8054ZM71.2664 82.3659V80.6477H78.0626V82.3659H71.2664Z" fill="white"/>
<path d="M83.7117 77.6287V76.5728H91.0839V77.6287H87.993V86.4023H86.8027V77.6287H83.7117ZM93.9336 86.5751C93.4665 86.5751 93.0425 86.4871 92.6618 86.3112C92.281 86.132 91.9786 85.8744 91.7546 85.5384C91.5307 85.1993 91.4187 84.7897 91.4187 84.3097C91.4187 83.8874 91.5019 83.545 91.6682 83.2826C91.8346 83.017 92.057 82.8091 92.3354 82.6587C92.6138 82.5083 92.9209 82.3963 93.2569 82.3227C93.5961 82.2459 93.9368 82.1851 94.2792 82.1403C94.7272 82.0827 95.0903 82.0395 95.3687 82.0107C95.6503 81.9787 95.8551 81.9259 95.9831 81.8523C96.1142 81.7788 96.1798 81.6508 96.1798 81.4684V81.43C96.1798 80.9564 96.0503 80.5885 95.7911 80.3261C95.5351 80.0637 95.1463 79.9325 94.6248 79.9325C94.084 79.9325 93.6601 80.0509 93.3529 80.2877C93.0457 80.5245 92.8297 80.7772 92.7049 81.046L91.6298 80.6621C91.8218 80.2141 92.0778 79.8653 92.3978 79.6157C92.7209 79.363 93.0729 79.187 93.4537 79.0878C93.8376 78.9854 94.2152 78.9342 94.5864 78.9342C94.8232 78.9342 95.0951 78.963 95.4023 79.0206C95.7127 79.075 96.0119 79.1886 96.2998 79.3614C96.591 79.5342 96.8326 79.7949 97.0246 80.1437C97.2165 80.4925 97.3125 80.9596 97.3125 81.5452V86.4023H96.1798V85.404H96.1222C96.0455 85.564 95.9175 85.7352 95.7383 85.9176C95.5591 86.1 95.3207 86.2552 95.0231 86.3831C94.7256 86.5111 94.3624 86.5751 93.9336 86.5751ZM94.1064 85.5576C94.5544 85.5576 94.932 85.4696 95.2391 85.2936C95.5495 85.1177 95.7831 84.8905 95.9399 84.6121C96.0998 84.3337 96.1798 84.041 96.1798 83.7338V82.6971C96.1318 82.7547 96.0263 82.8075 95.8631 82.8555C95.7031 82.9003 95.5175 82.9402 95.3063 82.9754C95.0983 83.0074 94.8952 83.0362 94.6968 83.0618C94.5016 83.0842 94.3432 83.1034 94.2216 83.1194C93.9272 83.1578 93.6521 83.2202 93.3961 83.3066C93.1433 83.3898 92.9385 83.5162 92.7817 83.6858C92.6282 83.8522 92.5514 84.0793 92.5514 84.3673C92.5514 84.7609 92.6969 85.0585 92.9881 85.26C93.2825 85.4584 93.6553 85.5576 94.1064 85.5576ZM102.164 86.5559C101.549 86.5559 101.007 86.4007 100.537 86.0904C100.066 85.7768 99.6983 85.3352 99.4328 84.7657C99.1672 84.1929 99.0344 83.5162 99.0344 82.7355C99.0344 81.9611 99.1672 81.2892 99.4328 80.7196C99.6983 80.1501 100.068 79.7101 100.541 79.3998C101.015 79.0894 101.562 78.9342 102.183 78.9342C102.663 78.9342 103.042 79.0142 103.32 79.1742C103.602 79.331 103.816 79.5102 103.964 79.7117C104.114 79.9101 104.231 80.0733 104.314 80.2013H104.41V76.5728H105.543V86.4023H104.448V85.2696H104.314C104.231 85.404 104.112 85.5736 103.959 85.7784C103.805 85.98 103.586 86.1608 103.301 86.3208C103.016 86.4775 102.637 86.5559 102.164 86.5559ZM102.317 85.5384C102.772 85.5384 103.156 85.42 103.469 85.1833C103.783 84.9433 104.021 84.6121 104.184 84.1897C104.348 83.7642 104.429 83.273 104.429 82.7163C104.429 82.1659 104.349 81.6844 104.189 81.2716C104.029 80.8556 103.792 80.5325 103.479 80.3021C103.165 80.0685 102.778 79.9517 102.317 79.9517C101.837 79.9517 101.437 80.0749 101.117 80.3213C100.801 80.5645 100.562 80.8956 100.402 81.3148C100.245 81.7308 100.167 82.1979 100.167 82.7163C100.167 83.241 100.247 83.7178 100.407 84.1465C100.57 84.5721 100.81 84.9113 101.127 85.1641C101.447 85.4136 101.844 85.5384 102.317 85.5384ZM107.928 86.4023V76.5728H109.061V80.2013H109.157C109.24 80.0733 109.355 79.9101 109.502 79.7117C109.653 79.5102 109.867 79.331 110.145 79.1742C110.427 79.0142 110.808 78.9342 111.288 78.9342C111.908 78.9342 112.456 79.0894 112.929 79.3998C113.403 79.7101 113.772 80.1501 114.038 80.7196C114.303 81.2892 114.436 81.9611 114.436 82.7355C114.436 83.5162 114.303 84.1929 114.038 84.7657C113.772 85.3352 113.404 85.7768 112.934 86.0904C112.464 86.4007 111.921 86.5559 111.307 86.5559C110.833 86.5559 110.454 86.4775 110.169 86.3208C109.885 86.1608 109.665 85.98 109.512 85.7784C109.358 85.5736 109.24 85.404 109.157 85.2696H109.022V86.4023H107.928ZM109.042 82.7163C109.042 83.273 109.123 83.7642 109.286 84.1897C109.449 84.6121 109.688 84.9433 110.001 85.1833C110.315 85.42 110.699 85.5384 111.153 85.5384C111.627 85.5384 112.022 85.4136 112.339 85.1641C112.659 84.9113 112.899 84.5721 113.059 84.1465C113.222 83.7178 113.304 83.241 113.304 82.7163C113.304 82.1979 113.224 81.7308 113.064 81.3148C112.907 80.8956 112.668 80.5645 112.348 80.3213C112.032 80.0749 111.633 79.9517 111.153 79.9517C110.693 79.9517 110.305 80.0685 109.992 80.3021C109.678 80.5325 109.441 80.8556 109.281 81.2716C109.121 81.6844 109.042 82.1659 109.042 82.7163ZM116.169 86.4023V79.0302H117.302V86.4023H116.169ZM116.745 77.8015C116.524 77.8015 116.334 77.7263 116.174 77.5759C116.017 77.4255 115.938 77.2448 115.938 77.0336C115.938 76.8224 116.017 76.6416 116.174 76.4912C116.334 76.3408 116.524 76.2656 116.745 76.2656C116.966 76.2656 117.154 76.3408 117.311 76.4912C117.471 76.6416 117.551 76.8224 117.551 77.0336C117.551 77.2448 117.471 77.4255 117.311 77.5759C117.154 77.7263 116.966 77.8015 116.745 77.8015ZM119.376 86.4023V79.0302H120.47V80.1437H120.547C120.682 79.7789 120.925 79.483 121.277 79.2558C121.629 79.0286 122.026 78.915 122.467 78.915C122.55 78.915 122.654 78.9166 122.779 78.9198C122.904 78.923 122.998 78.9278 123.062 78.9342V80.0861C123.024 80.0765 122.936 80.0621 122.798 80.0429C122.664 80.0205 122.522 80.0093 122.371 80.0093C122.013 80.0093 121.693 80.0845 121.411 80.2349C121.133 80.3821 120.912 80.5869 120.749 80.8492C120.589 81.1084 120.509 81.4044 120.509 81.7372V86.4023H119.376ZM125.461 83.7146L125.442 82.3131H125.672L128.897 79.0302H130.299L126.862 82.5051H126.766L125.461 83.7146ZM124.405 86.4023V76.5728H125.538V86.4023H124.405ZM129.089 86.4023L126.21 82.7547L127.016 81.9675L130.529 86.4023H129.089ZM134.448 86.5559C133.783 86.5559 133.199 86.3975 132.696 86.0808C132.197 85.764 131.807 85.3208 131.525 84.7513C131.247 84.1817 131.108 83.5162 131.108 82.7547C131.108 81.9867 131.247 81.3164 131.525 80.7436C131.807 80.1709 132.197 79.7261 132.696 79.4094C133.199 79.0926 133.783 78.9342 134.448 78.9342C135.114 78.9342 135.696 79.0926 136.195 79.4094C136.697 79.7261 137.088 80.1709 137.366 80.7436C137.648 81.3164 137.789 81.9867 137.789 82.7547C137.789 83.5162 137.648 84.1817 137.366 84.7513C137.088 85.3208 136.697 85.764 136.195 86.0808C135.696 86.3975 135.114 86.5559 134.448 86.5559ZM134.448 85.5384C134.954 85.5384 135.37 85.4088 135.696 85.1497C136.022 84.8905 136.264 84.5497 136.421 84.1273C136.577 83.705 136.656 83.2474 136.656 82.7547C136.656 82.2619 136.577 81.8028 136.421 81.3772C136.264 80.9516 136.022 80.6077 135.696 80.3453C135.37 80.0829 134.954 79.9517 134.448 79.9517C133.943 79.9517 133.527 80.0829 133.2 80.3453C132.874 80.6077 132.632 80.9516 132.475 81.3772C132.319 81.8028 132.24 82.2619 132.24 82.7547C132.24 83.2474 132.319 83.705 132.475 84.1273C132.632 84.5497 132.874 84.8905 133.2 85.1497C133.527 85.4088 133.943 85.5384 134.448 85.5384ZM139.518 86.4023V79.0302H140.612V80.1437H140.689C140.823 79.7789 141.066 79.483 141.418 79.2558C141.77 79.0286 142.167 78.915 142.609 78.915C142.692 78.915 142.796 78.9166 142.921 78.9198C143.045 78.923 143.14 78.9278 143.204 78.9342V80.0861C143.165 80.0765 143.077 80.0621 142.94 80.0429C142.805 80.0205 142.663 80.0093 142.513 80.0093C142.154 80.0093 141.834 80.0845 141.553 80.2349C141.274 80.3821 141.053 80.5869 140.89 80.8492C140.73 81.1084 140.65 81.4044 140.65 81.7372V86.4023H139.518ZM145.391 85.0585L145.314 85.5768C145.26 85.9416 145.177 86.3319 145.065 86.7479C144.956 87.1639 144.842 87.5558 144.724 87.9238C144.606 88.2918 144.508 88.5846 144.431 88.8021H143.567C143.609 88.5973 143.663 88.327 143.73 87.991C143.798 87.655 143.865 87.2791 143.932 86.8631C144.002 86.4503 144.06 86.028 144.105 85.596L144.162 85.0585H145.391ZM151.445 86.4023V76.5728H154.766C155.534 76.5728 156.164 76.704 156.657 76.9664C157.15 77.2256 157.514 77.5823 157.751 78.0367C157.988 78.491 158.106 79.0078 158.106 79.5869C158.106 80.1661 157.988 80.6796 157.751 81.1276C157.514 81.5756 157.151 81.9275 156.662 82.1835C156.172 82.4363 155.547 82.5627 154.785 82.5627H152.097V81.4876H154.747C155.271 81.4876 155.694 81.4108 156.014 81.2572C156.337 81.1036 156.57 80.886 156.714 80.6045C156.862 80.3197 156.935 79.9805 156.935 79.5869C156.935 79.1934 156.862 78.8494 156.714 78.555C156.567 78.2607 156.332 78.0335 156.009 77.8735C155.686 77.7103 155.259 77.6287 154.727 77.6287H152.635V86.4023H151.445ZM156.071 81.9867L158.49 86.4023H157.108L154.727 81.9867H156.071ZM168.383 81.4876C168.383 82.5243 168.196 83.4202 167.822 84.1753C167.448 84.9305 166.934 85.5128 166.281 85.9224C165.628 86.3319 164.883 86.5367 164.045 86.5367C163.206 86.5367 162.461 86.3319 161.808 85.9224C161.155 85.5128 160.642 84.9305 160.267 84.1753C159.893 83.4202 159.706 82.5243 159.706 81.4876C159.706 80.4509 159.893 79.5549 160.267 78.7998C160.642 78.0447 161.155 77.4623 161.808 77.0528C162.461 76.6432 163.206 76.4384 164.045 76.4384C164.883 76.4384 165.628 76.6432 166.281 77.0528C166.934 77.4623 167.448 78.0447 167.822 78.7998C168.196 79.5549 168.383 80.4509 168.383 81.4876ZM167.232 81.4876C167.232 80.6365 167.089 79.9181 166.804 79.3326C166.523 78.747 166.14 78.3039 165.657 78.0031C165.177 77.7023 164.64 77.5519 164.045 77.5519C163.449 77.5519 162.91 77.7023 162.427 78.0031C161.947 78.3039 161.565 78.747 161.28 79.3326C160.999 79.9181 160.858 80.6365 160.858 81.4876C160.858 82.3387 160.999 83.057 161.28 83.6426C161.565 84.2281 161.947 84.6713 162.427 84.9721C162.91 85.2728 163.449 85.4232 164.045 85.4232C164.64 85.4232 165.177 85.2728 165.657 84.9721C166.14 84.6713 166.523 84.2281 166.804 83.6426C167.089 83.057 167.232 82.3387 167.232 81.4876ZM170.385 86.4023V76.5728H173.706C174.477 76.5728 175.108 76.712 175.597 76.9904C176.09 77.2656 176.455 77.6383 176.692 78.1087C176.928 78.579 177.047 79.1038 177.047 79.6829C177.047 80.2621 176.928 80.7884 176.692 81.262C176.458 81.7356 176.096 82.1131 175.607 82.3947C175.117 82.6731 174.49 82.8123 173.725 82.8123H171.345V81.7564H173.687C174.215 81.7564 174.639 81.6652 174.959 81.4828C175.279 81.3004 175.511 81.054 175.655 80.7436C175.802 80.4301 175.876 80.0765 175.876 79.6829C175.876 79.2894 175.802 78.9374 175.655 78.627C175.511 78.3167 175.277 78.0735 174.954 77.8975C174.631 77.7183 174.202 77.6287 173.668 77.6287H171.575V86.4023H170.385ZM188.64 79.0302L185.914 86.4023H184.762L182.036 79.0302H183.265L185.3 84.9049H185.376L187.411 79.0302H188.64ZM192.08 86.5751C191.613 86.5751 191.189 86.4871 190.808 86.3112C190.428 86.132 190.125 85.8744 189.901 85.5384C189.677 85.1993 189.565 84.7897 189.565 84.3097C189.565 83.8874 189.648 83.545 189.815 83.2826C189.981 83.017 190.204 82.8091 190.482 82.6587C190.76 82.5083 191.067 82.3963 191.403 82.3227C191.743 82.2459 192.083 82.1851 192.426 82.1403C192.874 82.0827 193.237 82.0395 193.515 82.0107C193.797 81.9787 194.002 81.9259 194.13 81.8523C194.261 81.7788 194.326 81.6508 194.326 81.4684V81.43C194.326 80.9564 194.197 80.5885 193.938 80.3261C193.682 80.0637 193.293 79.9325 192.771 79.9325C192.231 79.9325 191.807 80.0509 191.499 80.2877C191.192 80.5245 190.976 80.7772 190.851 81.046L189.776 80.6621C189.968 80.2141 190.224 79.8653 190.544 79.6157C190.867 79.363 191.219 79.187 191.6 79.0878C191.984 78.9854 192.362 78.9342 192.733 78.9342C192.97 78.9342 193.242 78.963 193.549 79.0206C193.859 79.075 194.158 79.1886 194.446 79.3614C194.738 79.5342 194.979 79.7949 195.171 80.1437C195.363 80.4925 195.459 80.9596 195.459 81.5452V86.4023H194.326V85.404H194.269C194.192 85.564 194.064 85.7352 193.885 85.9176C193.706 86.1 193.467 86.2552 193.17 86.3831C192.872 86.5111 192.509 86.5751 192.08 86.5751ZM192.253 85.5576C192.701 85.5576 193.078 85.4696 193.386 85.2936C193.696 85.1177 193.93 84.8905 194.086 84.6121C194.246 84.3337 194.326 84.041 194.326 83.7338V82.6971C194.278 82.7547 194.173 82.8075 194.01 82.8555C193.85 82.9003 193.664 82.9402 193.453 82.9754C193.245 83.0074 193.042 83.0362 192.843 83.0618C192.648 83.0842 192.49 83.1034 192.368 83.1194C192.074 83.1578 191.799 83.2202 191.543 83.3066C191.29 83.3898 191.085 83.5162 190.928 83.6858C190.775 83.8522 190.698 84.0793 190.698 84.3673C190.698 84.7609 190.843 85.0585 191.135 85.26C191.429 85.4584 191.802 85.5576 192.253 85.5576ZM52.4833 91.6287V90.5728H59.8555V91.6287H56.7645V100.402H55.5742V91.6287H52.4833ZM63.4647 100.556C62.7992 100.556 62.2152 100.398 61.7129 100.081C61.2137 99.764 60.8234 99.3208 60.5418 98.7513C60.2634 98.1817 60.1242 97.5162 60.1242 96.7547C60.1242 95.9867 60.2634 95.3164 60.5418 94.7436C60.8234 94.1709 61.2137 93.7261 61.7129 93.4094C62.2152 93.0926 62.7992 92.9342 63.4647 92.9342C64.1303 92.9342 64.7126 93.0926 65.2118 93.4094C65.7141 93.7261 66.1045 94.1709 66.3829 94.7436C66.6645 95.3164 66.8052 95.9867 66.8052 96.7547C66.8052 97.5162 66.6645 98.1817 66.3829 98.7513C66.1045 99.3208 65.7141 99.764 65.2118 100.081C64.7126 100.398 64.1303 100.556 63.4647 100.556ZM63.4647 99.5384C63.9703 99.5384 64.3863 99.4088 64.7126 99.1497C65.039 98.8905 65.2806 98.5497 65.4374 98.1273C65.5941 97.705 65.6725 97.2474 65.6725 96.7547C65.6725 96.2619 65.5941 95.8028 65.4374 95.3772C65.2806 94.9516 65.039 94.6077 64.7126 94.3453C64.3863 94.0829 63.9703 93.9517 63.4647 93.9517C62.9592 93.9517 62.5432 94.0829 62.2168 94.3453C61.8905 94.6077 61.6489 94.9516 61.4921 95.3772C61.3353 95.8028 61.2569 96.2619 61.2569 96.7547C61.2569 97.2474 61.3353 97.705 61.4921 98.1273C61.6489 98.5497 61.8905 98.8905 62.2168 99.1497C62.5432 99.4088 62.9592 99.5384 63.4647 99.5384ZM68.5343 103.167V93.0302H69.6286V94.2013H69.763C69.8462 94.0733 69.9614 93.9101 70.1085 93.7117C70.2589 93.5102 70.4733 93.331 70.7517 93.1742C71.0333 93.0142 71.414 92.9342 71.894 92.9342C72.5147 92.9342 73.0619 93.0894 73.5354 93.3998C74.009 93.7101 74.3786 94.1501 74.6441 94.7196C74.9097 95.2892 75.0425 95.9611 75.0425 96.7355C75.0425 97.5162 74.9097 98.1929 74.6441 98.7657C74.3786 99.3352 74.0106 99.7768 73.5402 100.09C73.0699 100.401 72.5275 100.556 71.9132 100.556C71.4396 100.556 71.0605 100.478 70.7757 100.321C70.4909 100.161 70.2717 99.98 70.1181 99.7784C69.9646 99.5736 69.8462 99.404 69.763 99.2696H69.667V103.167H68.5343ZM69.6478 96.7163C69.6478 97.273 69.7294 97.7642 69.8926 98.1897C70.0558 98.6121 70.2941 98.9433 70.6077 99.1833C70.9213 99.42 71.3052 99.5384 71.7596 99.5384C72.2332 99.5384 72.6283 99.4136 72.9451 99.1641C73.2651 98.9113 73.505 98.5721 73.665 98.1465C73.8282 97.7178 73.9098 97.241 73.9098 96.7163C73.9098 96.1979 73.8298 95.7308 73.6698 95.3148C73.513 94.8956 73.2747 94.5645 72.9547 94.3213C72.6379 94.0749 72.2396 93.9517 71.7596 93.9517C71.2988 93.9517 70.9117 94.0685 70.5981 94.3021C70.2845 94.5325 70.0478 94.8556 69.8878 95.2716C69.7278 95.6844 69.6478 96.1659 69.6478 96.7163ZM80.994 95.6604V96.7163H76.6936V95.6604H80.994ZM82.987 100.402V93.0302H84.0813V94.1821H84.1773C84.3309 93.7885 84.5789 93.483 84.9212 93.2654C85.2636 93.0446 85.6748 92.9342 86.1547 92.9342C86.6411 92.9342 87.0459 93.0446 87.369 93.2654C87.6954 93.483 87.9498 93.7885 88.1322 94.1821H88.2089C88.3977 93.8013 88.6809 93.499 89.0585 93.275C89.436 93.0478 89.8888 92.9342 90.4168 92.9342C91.0759 92.9342 91.615 93.1406 92.0342 93.5533C92.4534 93.9629 92.663 94.6013 92.663 95.4684V100.402H91.5303V95.4684C91.5303 94.9244 91.3815 94.5357 91.0839 94.3021C90.7863 94.0685 90.436 93.9517 90.0328 93.9517C89.5144 93.9517 89.1129 94.1085 88.8281 94.4221C88.5433 94.7324 88.4009 95.126 88.4009 95.6028V100.402H87.249V95.3532C87.249 94.934 87.113 94.5965 86.8411 94.3405C86.5691 94.0813 86.2187 93.9517 85.79 93.9517C85.4956 93.9517 85.2204 94.0301 84.9644 94.1869C84.7117 94.3437 84.5069 94.5613 84.3501 94.8396C84.1965 95.1148 84.1197 95.4332 84.1197 95.7948V100.402H82.987ZM97.8249 100.556C97.1146 100.556 96.5018 100.399 95.9867 100.086C95.4747 99.7688 95.0795 99.3272 94.8012 98.7609C94.526 98.1913 94.3884 97.529 94.3884 96.7739C94.3884 96.0187 94.526 95.3532 94.8012 94.7772C95.0795 94.1981 95.4667 93.7469 95.9627 93.4238C96.4618 93.0974 97.0442 92.9342 97.7097 92.9342C98.0937 92.9342 98.4728 92.9982 98.8472 93.1262C99.2216 93.2542 99.5623 93.4622 99.8695 93.7501C100.177 94.0349 100.421 94.4125 100.604 94.8828C100.786 95.3532 100.877 95.9323 100.877 96.6203V97.1002H95.1947V96.1211H99.7255C99.7255 95.7052 99.6423 95.334 99.476 95.0076C99.3128 94.6812 99.0792 94.4237 98.7752 94.2349C98.4744 94.0461 98.1193 93.9517 97.7097 93.9517C97.2585 93.9517 96.8682 94.0637 96.5386 94.2877C96.2122 94.5085 95.9611 94.7964 95.7851 95.1516C95.6091 95.5068 95.5211 95.8875 95.5211 96.2939V96.9466C95.5211 97.5034 95.6171 97.9754 95.8091 98.3625C96.0043 98.7465 96.2746 99.0393 96.6202 99.2408C96.9658 99.4392 97.3673 99.5384 97.8249 99.5384C98.1225 99.5384 98.3912 99.4968 98.6312 99.4136C98.8744 99.3272 99.084 99.1993 99.26 99.0297C99.436 98.8569 99.5719 98.6425 99.6679 98.3865L100.762 98.6937C100.647 99.0649 100.453 99.3912 100.181 99.6728C99.9095 99.9512 99.5735 100.169 99.1736 100.326C98.7736 100.479 98.3241 100.556 97.8249 100.556ZM103.733 95.9675V100.402H102.6V93.0302H103.695V94.1821H103.791C103.964 93.8077 104.226 93.507 104.578 93.2798C104.93 93.0494 105.384 92.9342 105.941 92.9342C106.44 92.9342 106.877 93.0366 107.251 93.2414C107.626 93.443 107.917 93.7501 108.125 94.1629C108.333 94.5725 108.437 95.0908 108.437 95.718V100.402H107.304V95.7948C107.304 95.2156 107.154 94.7644 106.853 94.4413C106.552 94.1149 106.139 93.9517 105.615 93.9517C105.253 93.9517 104.93 94.0301 104.645 94.1869C104.364 94.3437 104.141 94.5725 103.978 94.8732C103.815 95.174 103.733 95.5388 103.733 95.9675ZM113.598 100.556C112.887 100.556 112.274 100.399 111.759 100.086C111.247 99.7688 110.852 99.3272 110.574 98.7609C110.299 98.1913 110.161 97.529 110.161 96.7739C110.161 96.0187 110.299 95.3532 110.574 94.7772C110.852 94.1981 111.239 93.7469 111.735 93.4238C112.234 93.0974 112.817 92.9342 113.482 92.9342C113.866 92.9342 114.245 92.9982 114.62 93.1262C114.994 93.2542 115.335 93.4622 115.642 93.7501C115.949 94.0349 116.194 94.4125 116.376 94.8828C116.559 95.3532 116.65 95.9323 116.65 96.6203V97.1002H110.967V96.1211H115.498C115.498 95.7052 115.415 95.334 115.249 95.0076C115.085 94.6812 114.852 94.4237 114.548 94.2349C114.247 94.0461 113.892 93.9517 113.482 93.9517C113.031 93.9517 112.641 94.0637 112.311 94.2877C111.985 94.5085 111.734 94.7964 111.558 95.1516C111.382 95.5068 111.294 95.8875 111.294 96.2939V96.9466C111.294 97.5034 111.39 97.9754 111.582 98.3625C111.777 98.7465 112.047 99.0393 112.393 99.2408C112.738 99.4392 113.14 99.5384 113.598 99.5384C113.895 99.5384 114.164 99.4968 114.404 99.4136C114.647 99.3272 114.857 99.1993 115.033 99.0297C115.209 98.8569 115.345 98.6425 115.441 98.3865L116.535 98.6937C116.42 99.0649 116.226 99.3912 115.954 99.6728C115.682 99.9512 115.346 100.169 114.946 100.326C114.546 100.479 114.097 100.556 113.598 100.556ZM118.373 93.0302H119.506V100.94C119.506 101.394 119.427 101.788 119.271 102.121C119.117 102.453 118.883 102.711 118.57 102.893C118.259 103.076 117.868 103.167 117.394 103.167C117.356 103.167 117.317 103.167 117.279 103.167C117.24 103.167 117.202 103.167 117.164 103.167V102.111C117.202 102.111 117.237 102.111 117.269 102.111C117.301 102.111 117.336 102.111 117.375 102.111C117.72 102.111 117.973 102.009 118.133 101.804C118.293 101.602 118.373 101.314 118.373 100.94V93.0302ZM118.93 91.8015C118.709 91.8015 118.519 91.7263 118.359 91.5759C118.202 91.4255 118.124 91.2448 118.124 91.0336C118.124 90.8224 118.202 90.6416 118.359 90.4912C118.519 90.3408 118.709 90.2656 118.93 90.2656C119.151 90.2656 119.339 90.3408 119.496 90.4912C119.656 90.6416 119.736 90.8224 119.736 91.0336C119.736 91.2448 119.656 91.4255 119.496 91.5759C119.339 91.7263 119.151 91.8015 118.93 91.8015ZM124.671 100.556C123.961 100.556 123.348 100.399 122.833 100.086C122.321 99.7688 121.926 99.3272 121.648 98.7609C121.372 98.1913 121.235 97.529 121.235 96.7739C121.235 96.0187 121.372 95.3532 121.648 94.7772C121.926 94.1981 122.313 93.7469 122.809 93.4238C123.308 93.0974 123.891 92.9342 124.556 92.9342C124.94 92.9342 125.319 92.9982 125.694 93.1262C126.068 93.2542 126.409 93.4622 126.716 93.7501C127.023 94.0349 127.268 94.4125 127.45 94.8828C127.633 95.3532 127.724 95.9323 127.724 96.6203V97.1002H122.041V96.1211H126.572C126.572 95.7052 126.489 95.334 126.322 95.0076C126.159 94.6812 125.926 94.4237 125.622 94.2349C125.321 94.0461 124.966 93.9517 124.556 93.9517C124.105 93.9517 123.715 94.0637 123.385 94.2877C123.059 94.5085 122.807 94.7964 122.632 95.1516C122.456 95.5068 122.368 95.8875 122.368 96.2939V96.9466C122.368 97.5034 122.464 97.9754 122.655 98.3625C122.851 98.7465 123.121 99.0393 123.467 99.2408C123.812 99.4392 124.214 99.5384 124.671 99.5384C124.969 99.5384 125.238 99.4968 125.478 99.4136C125.721 99.3272 125.93 99.1993 126.106 99.0297C126.282 98.8569 126.418 98.6425 126.514 98.3865L127.609 98.6937C127.493 99.0649 127.3 99.3912 127.028 99.6728C126.756 99.9512 126.42 100.169 126.02 100.326C125.62 100.479 125.17 100.556 124.671 100.556ZM129.447 100.402V93.0302H130.541V94.1437H130.618C130.752 93.7789 130.996 93.483 131.348 93.2558C131.699 93.0286 132.096 92.915 132.538 92.915C132.621 92.915 132.725 92.9166 132.85 92.9198C132.975 92.923 133.069 92.9278 133.133 92.9342V94.0861C133.095 94.0765 133.007 94.0621 132.869 94.0429C132.735 94.0205 132.592 94.0093 132.442 94.0093C132.083 94.0093 131.763 94.0845 131.482 94.2349C131.204 94.3821 130.983 94.5869 130.82 94.8492C130.66 95.1084 130.58 95.4044 130.58 95.7372V100.402H129.447ZM135.608 90.5728V100.402H134.476V90.5728H135.608ZM139.852 100.575C139.385 100.575 138.961 100.487 138.58 100.311C138.2 100.132 137.897 99.8744 137.673 99.5384C137.449 99.1993 137.337 98.7897 137.337 98.3097C137.337 97.8874 137.421 97.545 137.587 97.2826C137.753 97.017 137.976 96.8091 138.254 96.6587C138.532 96.5083 138.84 96.3963 139.176 96.3227C139.515 96.2459 139.856 96.1851 140.198 96.1403C140.646 96.0827 141.009 96.0395 141.287 96.0107C141.569 95.9787 141.774 95.9259 141.902 95.8523C142.033 95.7788 142.099 95.6508 142.099 95.4684V95.43C142.099 94.9564 141.969 94.5885 141.71 94.3261C141.454 94.0637 141.065 93.9325 140.544 93.9325C140.003 93.9325 139.579 94.0509 139.272 94.2877C138.964 94.5245 138.748 94.7772 138.624 95.046L137.549 94.6621C137.741 94.2141 137.997 93.8653 138.317 93.6157C138.64 93.363 138.992 93.187 139.372 93.0878C139.756 92.9854 140.134 92.9342 140.505 92.9342C140.742 92.9342 141.014 92.963 141.321 93.0206C141.631 93.075 141.931 93.1886 142.219 93.3614C142.51 93.5342 142.751 93.7949 142.943 94.1437C143.135 94.4925 143.231 94.9596 143.231 95.5452V100.402H142.099V99.404H142.041C141.964 99.564 141.836 99.7352 141.657 99.9176C141.478 100.1 141.239 100.255 140.942 100.383C140.644 100.511 140.281 100.575 139.852 100.575ZM140.025 99.5576C140.473 99.5576 140.851 99.4696 141.158 99.2936C141.468 99.1177 141.702 98.8905 141.859 98.6121C142.019 98.3337 142.099 98.041 142.099 97.7338V96.6971C142.051 96.7547 141.945 96.8075 141.782 96.8555C141.622 96.9003 141.436 96.9402 141.225 96.9754C141.017 97.0074 140.814 97.0362 140.616 97.0618C140.42 97.0842 140.262 97.1034 140.14 97.1194C139.846 97.1578 139.571 97.2202 139.315 97.3066C139.062 97.3898 138.857 97.5162 138.7 97.6858C138.547 97.8522 138.47 98.0793 138.47 98.3673C138.47 98.7609 138.616 99.0585 138.907 99.26C139.201 99.4584 139.574 99.5576 140.025 99.5576ZM145.299 100.402V93.0302H146.393V94.1437H146.47C146.604 93.7789 146.847 93.483 147.199 93.2558C147.551 93.0286 147.948 92.915 148.39 92.915C148.473 92.915 148.577 92.9166 148.702 92.9198C148.826 92.923 148.921 92.9278 148.985 92.9342V94.0861C148.946 94.0765 148.858 94.0621 148.721 94.0429C148.586 94.0205 148.444 94.0093 148.294 94.0093C147.935 94.0093 147.615 94.0845 147.334 94.2349C147.055 94.3821 146.835 94.5869 146.671 94.8492C146.511 95.1084 146.431 95.4044 146.431 95.7372V100.402H145.299ZM154.129 100.402V93.0302H155.223V94.1821H155.319C155.473 93.7885 155.721 93.483 156.063 93.2654C156.405 93.0446 156.816 92.9342 157.296 92.9342C157.783 92.9342 158.188 93.0446 158.511 93.2654C158.837 93.483 159.091 93.7885 159.274 94.1821H159.351C159.539 93.8013 159.823 93.499 160.2 93.275C160.578 93.0478 161.031 92.9342 161.558 92.9342C162.218 92.9342 162.757 93.1406 163.176 93.5533C163.595 93.9629 163.805 94.6013 163.805 95.4684V100.402H162.672V95.4684C162.672 94.9244 162.523 94.5357 162.226 94.3021C161.928 94.0685 161.578 93.9517 161.174 93.9517C160.656 93.9517 160.255 94.1085 159.97 94.4221C159.685 94.7324 159.543 95.126 159.543 95.6028V100.402H158.391V95.3532C158.391 94.934 158.255 94.5965 157.983 94.3405C157.711 94.0813 157.36 93.9517 156.932 93.9517C156.637 93.9517 156.362 94.0301 156.106 94.1869C155.853 94.3437 155.649 94.5613 155.492 94.8396C155.338 95.1148 155.261 95.4332 155.261 95.7948V100.402H154.129ZM168.967 100.556C168.256 100.556 167.644 100.399 167.128 100.086C166.616 99.7688 166.221 99.3272 165.943 98.7609C165.668 98.1913 165.53 97.529 165.53 96.7739C165.53 96.0187 165.668 95.3532 165.943 94.7772C166.221 94.1981 166.608 93.7469 167.104 93.4238C167.604 93.0974 168.186 92.9342 168.851 92.9342C169.235 92.9342 169.615 92.9982 169.989 93.1262C170.363 93.2542 170.704 93.4622 171.011 93.7501C171.318 94.0349 171.563 94.4125 171.746 94.8828C171.928 95.3532 172.019 95.9323 172.019 96.6203V97.1002H166.336V96.1211H170.867C170.867 95.7052 170.784 95.334 170.618 95.0076C170.454 94.6812 170.221 94.4237 169.917 94.2349C169.616 94.0461 169.261 93.9517 168.851 93.9517C168.4 93.9517 168.01 94.0637 167.68 94.2877C167.354 94.5085 167.103 94.7964 166.927 95.1516C166.751 95.5068 166.663 95.8875 166.663 96.2939V96.9466C166.663 97.5034 166.759 97.9754 166.951 98.3625C167.146 98.7465 167.416 99.0393 167.762 99.2408C168.107 99.4392 168.509 99.5384 168.967 99.5384C169.264 99.5384 169.533 99.4968 169.773 99.4136C170.016 99.3272 170.226 99.1993 170.402 99.0297C170.578 98.8569 170.714 98.6425 170.81 98.3865L171.904 98.6937C171.789 99.0649 171.595 99.3912 171.323 99.6728C171.051 99.9512 170.715 100.169 170.315 100.326C169.915 100.479 169.466 100.556 168.967 100.556ZM174.875 95.9675V100.402H173.742V93.0302H174.836V94.1821H174.932C175.105 93.8077 175.368 93.507 175.72 93.2798C176.072 93.0494 176.526 92.9342 177.083 92.9342C177.582 92.9342 178.019 93.0366 178.393 93.2414C178.767 93.443 179.059 93.7501 179.266 94.1629C179.474 94.5725 179.578 95.0908 179.578 95.718V100.402H178.446V95.7948C178.446 95.2156 178.295 94.7644 177.995 94.4413C177.694 94.1149 177.281 93.9517 176.756 93.9517C176.395 93.9517 176.072 94.0301 175.787 94.1869C175.505 94.3437 175.283 94.5725 175.12 94.8732C174.956 95.174 174.875 95.5388 174.875 95.9675ZM184.854 93.0302V93.9901H181.034V93.0302H184.854ZM182.147 91.264H183.28V98.2905C183.28 98.6105 183.327 98.8505 183.419 99.0105C183.515 99.1673 183.637 99.2728 183.784 99.3272C183.934 99.3784 184.093 99.404 184.259 99.404C184.384 99.404 184.486 99.3976 184.566 99.3848C184.646 99.3688 184.71 99.356 184.758 99.3464L184.989 100.364C184.912 100.393 184.805 100.422 184.667 100.45C184.53 100.482 184.355 100.498 184.144 100.498C183.824 100.498 183.511 100.43 183.203 100.292C182.899 100.154 182.647 99.9448 182.445 99.6632C182.247 99.3816 182.147 99.0265 182.147 98.5977V91.264ZM189.474 100.556C188.808 100.556 188.224 100.398 187.722 100.081C187.223 99.764 186.833 99.3208 186.551 98.7513C186.273 98.1817 186.133 97.5162 186.133 96.7547C186.133 95.9867 186.273 95.3164 186.551 94.7436C186.833 94.1709 187.223 93.7261 187.722 93.4094C188.224 93.0926 188.808 92.9342 189.474 92.9342C190.14 92.9342 190.722 93.0926 191.221 93.4094C191.723 93.7261 192.114 94.1709 192.392 94.7436C192.674 95.3164 192.814 95.9867 192.814 96.7547C192.814 97.5162 192.674 98.1817 192.392 98.7513C192.114 99.3208 191.723 99.764 191.221 100.081C190.722 100.398 190.14 100.556 189.474 100.556ZM189.474 99.5384C189.98 99.5384 190.395 99.4088 190.722 99.1497C191.048 98.8905 191.29 98.5497 191.447 98.1273C191.603 97.705 191.682 97.2474 191.682 96.7547C191.682 96.2619 191.603 95.8028 191.447 95.3772C191.29 94.9516 191.048 94.6077 190.722 94.3453C190.395 94.0829 189.98 93.9517 189.474 93.9517C188.968 93.9517 188.552 94.0829 188.226 94.3453C187.9 94.6077 187.658 94.9516 187.501 95.3772C187.345 95.8028 187.266 96.2619 187.266 96.7547C187.266 97.2474 187.345 97.705 187.501 98.1273C187.658 98.5497 187.9 98.8905 188.226 99.1497C188.552 99.4088 188.968 99.5384 189.474 99.5384ZM194.544 100.402V93.0302H195.638V94.1437H195.715C195.849 93.7789 196.092 93.483 196.444 93.2558C196.796 93.0286 197.193 92.915 197.634 92.915C197.718 92.915 197.822 92.9166 197.946 92.9198C198.071 92.923 198.166 92.9278 198.23 92.9342V94.0861C198.191 94.0765 198.103 94.0621 197.966 94.0429C197.831 94.0205 197.689 94.0093 197.538 94.0093C197.18 94.0093 196.86 94.0845 196.579 94.2349C196.3 94.3821 196.079 94.5869 195.916 94.8492C195.756 95.1084 195.676 95.4044 195.676 95.7372V100.402H194.544ZM199.572 100.402V93.0302H200.705V100.402H199.572ZM200.148 91.8015C199.927 91.8015 199.737 91.7263 199.577 91.5759C199.42 91.4255 199.342 91.2448 199.342 91.0336C199.342 90.8224 199.42 90.6416 199.577 90.4912C199.737 90.3408 199.927 90.2656 200.148 90.2656C200.369 90.2656 200.558 90.3408 200.715 90.4912C200.875 90.6416 200.955 90.8224 200.955 91.0336C200.955 91.2448 200.875 91.4255 200.715 91.5759C200.558 91.7263 200.369 91.8015 200.148 91.8015Z" fill="#B3D4FF"/>
<path d="M52.3105 117.577V115.864H60.3834V117.577H57.3741V125.693H55.3199V117.577H52.3105ZM61.6745 125.693V118.321H63.7191V125.693H61.6745ZM62.7016 117.371C62.3976 117.371 62.1369 117.27 61.9193 117.069C61.7049 116.864 61.5977 116.619 61.5977 116.334C61.5977 116.053 61.7049 115.811 61.9193 115.609C62.1369 115.405 62.3976 115.302 62.7016 115.302C63.0056 115.302 63.2648 115.405 63.4791 115.609C63.6967 115.811 63.8055 116.053 63.8055 116.334C63.8055 116.619 63.6967 116.864 63.4791 117.069C63.2648 117.27 63.0056 117.371 62.7016 117.371ZM65.3186 125.693V124.474L68.9279 120.006V119.953H65.4434V118.321H71.39V119.651L68.0015 124.009V124.062H71.5148V125.693H65.3186ZM73.0783 125.693V118.321H75.1229V125.693H73.0783ZM74.1054 117.371C73.8014 117.371 73.5406 117.27 73.3231 117.069C73.1087 116.864 73.0015 116.619 73.0015 116.334C73.0015 116.053 73.1087 115.811 73.3231 115.609C73.5406 115.405 73.8014 115.302 74.1054 115.302C74.4094 115.302 74.6685 115.405 74.8829 115.609C75.1005 115.811 75.2093 116.053 75.2093 116.334C75.2093 116.619 75.1005 116.864 74.8829 117.069C74.6685 117.27 74.4094 117.371 74.1054 117.371ZM76.7608 125.693V118.321H78.7094V119.622H78.7958C78.9494 119.19 79.2053 118.849 79.5637 118.6C79.9221 118.35 80.3508 118.225 80.85 118.225C81.3556 118.225 81.7859 118.352 82.1411 118.604C82.4963 118.854 82.733 119.193 82.8514 119.622H82.9282C83.0786 119.2 83.3506 118.862 83.7441 118.609C84.1409 118.353 84.6097 118.225 85.1504 118.225C85.8384 118.225 86.3967 118.444 86.8255 118.883C87.2574 119.318 87.4734 119.935 87.4734 120.735V125.693H85.4336V121.139C85.4336 120.729 85.3248 120.422 85.1072 120.217C84.8896 120.012 84.6177 119.91 84.2913 119.91C83.9201 119.91 83.6306 120.028 83.4226 120.265C83.2146 120.499 83.1106 120.807 83.1106 121.191V125.693H81.1284V121.095C81.1284 120.734 81.0244 120.446 80.8164 120.231C80.6116 120.017 80.3412 119.91 80.0053 119.91C79.7781 119.91 79.5733 119.967 79.3909 120.083C79.2117 120.195 79.0694 120.353 78.9638 120.558C78.8582 120.759 78.8054 120.996 78.8054 121.268V125.693H76.7608ZM91.1331 115.864V125.693H89.0885V115.864H91.1331ZM94.8732 125.833C94.4028 125.833 93.9836 125.751 93.6157 125.588C93.2477 125.421 92.9565 125.177 92.7421 124.853C92.531 124.527 92.4254 124.121 92.4254 123.634C92.4254 123.225 92.5006 122.881 92.651 122.602C92.8013 122.324 93.0061 122.1 93.2653 121.93C93.5245 121.761 93.8189 121.633 94.1484 121.547C94.4812 121.46 94.83 121.399 95.1947 121.364C95.6235 121.319 95.9691 121.278 96.2314 121.239C96.4938 121.198 96.6842 121.137 96.8026 121.057C96.921 120.977 96.9802 120.859 96.9802 120.702V120.673C96.9802 120.369 96.8842 120.134 96.6922 119.967C96.5034 119.801 96.2346 119.718 95.8859 119.718C95.5179 119.718 95.2251 119.799 95.0075 119.963C94.79 120.123 94.646 120.324 94.5756 120.567L92.6846 120.414C92.7805 119.966 92.9693 119.579 93.2509 119.252C93.5325 118.923 93.8956 118.67 94.3404 118.494C94.7884 118.315 95.3067 118.225 95.8955 118.225C96.305 118.225 96.697 118.273 97.0714 118.369C97.4489 118.465 97.7833 118.614 98.0745 118.816C98.3688 119.017 98.6008 119.276 98.7704 119.593C98.94 119.907 99.0248 120.283 99.0248 120.721V125.693H97.0858V124.671H97.0282C96.9098 124.901 96.7514 125.105 96.553 125.281C96.3546 125.453 96.1162 125.589 95.8379 125.689C95.5595 125.785 95.2379 125.833 94.8732 125.833ZM95.4587 124.421C95.7595 124.421 96.0251 124.362 96.2554 124.244C96.4858 124.122 96.6666 123.959 96.7978 123.754C96.929 123.55 96.9946 123.318 96.9946 123.058V122.276C96.9306 122.318 96.8426 122.356 96.7306 122.391C96.6218 122.423 96.4986 122.454 96.361 122.482C96.2234 122.508 96.0859 122.532 95.9483 122.554C95.8107 122.574 95.6859 122.591 95.5739 122.607C95.3339 122.642 95.1243 122.698 94.9452 122.775C94.766 122.852 94.6268 122.956 94.5276 123.087C94.4284 123.215 94.3788 123.375 94.3788 123.567C94.3788 123.846 94.4796 124.058 94.6812 124.205C94.886 124.349 95.1451 124.421 95.4587 124.421ZM106.745 120.423L104.873 120.539C104.841 120.379 104.772 120.235 104.667 120.107C104.561 119.975 104.422 119.871 104.249 119.795C104.08 119.715 103.876 119.675 103.64 119.675C103.323 119.675 103.056 119.742 102.838 119.876C102.62 120.007 102.512 120.183 102.512 120.404C102.512 120.58 102.582 120.729 102.723 120.851C102.864 120.972 103.105 121.07 103.448 121.143L104.782 121.412C105.499 121.559 106.033 121.796 106.385 122.122C106.737 122.449 106.913 122.878 106.913 123.409C106.913 123.892 106.771 124.316 106.486 124.681C106.204 125.045 105.817 125.33 105.324 125.535C104.835 125.737 104.27 125.837 103.63 125.837C102.654 125.837 101.877 125.634 101.297 125.228C100.721 124.818 100.384 124.261 100.285 123.558L102.296 123.452C102.356 123.75 102.504 123.977 102.737 124.133C102.971 124.287 103.27 124.364 103.635 124.364C103.993 124.364 104.281 124.295 104.499 124.157C104.719 124.017 104.831 123.836 104.835 123.615C104.831 123.43 104.753 123.278 104.599 123.159C104.446 123.038 104.209 122.945 103.889 122.881L102.612 122.626C101.893 122.482 101.357 122.233 101.005 121.878C100.656 121.523 100.481 121.07 100.481 120.519C100.481 120.046 100.609 119.638 100.865 119.296C101.125 118.953 101.488 118.689 101.955 118.504C102.425 118.318 102.976 118.225 103.606 118.225C104.537 118.225 105.27 118.422 105.804 118.816C106.342 119.209 106.655 119.745 106.745 120.423ZM110.245 121.431V125.693H108.2V115.864H110.187V119.622H110.274C110.44 119.187 110.709 118.846 111.08 118.6C111.451 118.35 111.917 118.225 112.477 118.225C112.989 118.225 113.435 118.337 113.816 118.561C114.2 118.782 114.497 119.1 114.709 119.516C114.923 119.929 115.029 120.423 115.025 120.999V125.693H112.981V121.364C112.984 120.91 112.869 120.556 112.635 120.303C112.405 120.051 112.082 119.924 111.666 119.924C111.387 119.924 111.141 119.983 110.927 120.102C110.715 120.22 110.549 120.393 110.427 120.62C110.309 120.844 110.248 121.115 110.245 121.431ZM120.556 118.321V119.857H116.116V118.321H120.556ZM117.124 116.555H119.169V123.428C119.169 123.617 119.197 123.764 119.255 123.87C119.313 123.972 119.393 124.044 119.495 124.086C119.601 124.127 119.722 124.148 119.86 124.148C119.956 124.148 120.052 124.14 120.148 124.124C120.244 124.105 120.317 124.09 120.369 124.081L120.69 125.602C120.588 125.634 120.444 125.671 120.258 125.713C120.073 125.757 119.847 125.785 119.581 125.794C119.089 125.813 118.657 125.748 118.285 125.597C117.918 125.447 117.631 125.213 117.426 124.897C117.222 124.58 117.121 124.18 117.124 123.697V116.555ZM121.888 125.693V118.321H123.932V125.693H121.888ZM122.915 117.371C122.611 117.371 122.35 117.27 122.132 117.069C121.918 116.864 121.811 116.619 121.811 116.334C121.811 116.053 121.918 115.811 122.132 115.609C122.35 115.405 122.611 115.302 122.915 115.302C123.219 115.302 123.478 115.405 123.692 115.609C123.91 115.811 124.019 116.053 124.019 116.334C124.019 116.619 123.91 116.864 123.692 117.069C123.478 117.27 123.219 117.371 122.915 117.371ZM125.57 125.693V118.321H127.552V119.607H127.629C127.763 119.15 127.989 118.804 128.306 118.571C128.623 118.334 128.987 118.216 129.4 118.216C129.502 118.216 129.613 118.222 129.731 118.235C129.85 118.248 129.954 118.265 130.043 118.288V120.102C129.947 120.073 129.814 120.047 129.645 120.025C129.475 120.003 129.32 119.991 129.179 119.991C128.879 119.991 128.61 120.057 128.373 120.188C128.139 120.316 127.954 120.495 127.816 120.726C127.682 120.956 127.615 121.222 127.615 121.523V125.693H125.57ZM131.1 125.693V118.321H133.145V125.693H131.1ZM132.127 117.371C131.823 117.371 131.563 117.27 131.345 117.069C131.131 116.864 131.024 116.619 131.024 116.334C131.024 116.053 131.131 115.811 131.345 115.609C131.563 115.405 131.823 115.302 132.127 115.302C132.431 115.302 132.691 115.405 132.905 115.609C133.123 115.811 133.231 116.053 133.231 116.334C133.231 116.619 133.123 116.864 132.905 117.069C132.691 117.27 132.431 117.371 132.127 117.371ZM140.917 120.423L139.045 120.539C139.013 120.379 138.944 120.235 138.838 120.107C138.733 119.975 138.594 119.871 138.421 119.795C138.251 119.715 138.048 119.675 137.811 119.675C137.495 119.675 137.227 119.742 137.01 119.876C136.792 120.007 136.683 120.183 136.683 120.404C136.683 120.58 136.754 120.729 136.895 120.851C137.035 120.972 137.277 121.07 137.619 121.143L138.954 121.412C139.67 121.559 140.205 121.796 140.557 122.122C140.909 122.449 141.085 122.878 141.085 123.409C141.085 123.892 140.942 124.316 140.658 124.681C140.376 125.045 139.989 125.33 139.496 125.535C139.006 125.737 138.442 125.837 137.802 125.837C136.826 125.837 136.048 125.634 135.469 125.228C134.893 124.818 134.556 124.261 134.456 123.558L136.467 123.452C136.528 123.75 136.675 123.977 136.909 124.133C137.143 124.287 137.442 124.364 137.807 124.364C138.165 124.364 138.453 124.295 138.67 124.157C138.891 124.017 139.003 123.836 139.006 123.615C139.003 123.43 138.925 123.278 138.771 123.159C138.618 123.038 138.381 122.945 138.061 122.881L136.784 122.626C136.064 122.482 135.528 122.233 135.176 121.878C134.828 121.523 134.653 121.07 134.653 120.519C134.653 120.046 134.781 119.638 135.037 119.296C135.296 118.953 135.66 118.689 136.127 118.504C136.597 118.318 137.147 118.225 137.778 118.225C138.709 118.225 139.442 118.422 139.976 118.816C140.514 119.209 140.827 119.745 140.917 120.423ZM144.417 121.431V125.693H142.372V115.864H144.359V119.622H144.446C144.612 119.187 144.881 118.846 145.252 118.6C145.623 118.35 146.089 118.225 146.649 118.225C147.161 118.225 147.607 118.337 147.988 118.561C148.372 118.782 148.669 119.1 148.88 119.516C149.095 119.929 149.2 120.423 149.197 120.999V125.693H147.153V121.364C147.156 120.91 147.041 120.556 146.807 120.303C146.577 120.051 146.253 119.924 145.837 119.924C145.559 119.924 145.313 119.983 145.098 120.102C144.887 120.22 144.721 120.393 144.599 120.62C144.481 120.844 144.42 121.115 144.417 121.431Z" fill="white"/>
<path d="M154.982 125.693V115.864H156.115V119.492H156.211C156.294 119.364 156.409 119.201 156.556 119.003C156.706 118.801 156.921 118.622 157.199 118.465C157.481 118.305 157.862 118.225 158.342 118.225C158.962 118.225 159.509 118.38 159.983 118.691C160.457 119.001 160.826 119.441 161.092 120.011C161.357 120.58 161.49 121.252 161.49 122.026C161.49 122.807 161.357 123.484 161.092 124.057C160.826 124.626 160.458 125.068 159.988 125.381C159.517 125.692 158.975 125.847 158.361 125.847C157.887 125.847 157.508 125.769 157.223 125.612C156.938 125.452 156.719 125.271 156.566 125.069C156.412 124.865 156.294 124.695 156.211 124.561H156.076V125.693H154.982ZM156.095 122.007C156.095 122.564 156.177 123.055 156.34 123.481C156.503 123.903 156.742 124.234 157.055 124.474C157.369 124.711 157.753 124.829 158.207 124.829C158.681 124.829 159.076 124.705 159.393 124.455C159.713 124.202 159.953 123.863 160.113 123.438C160.276 123.009 160.357 122.532 160.357 122.007C160.357 121.489 160.277 121.022 160.117 120.606C159.961 120.187 159.722 119.855 159.402 119.612C159.085 119.366 158.687 119.243 158.207 119.243C157.746 119.243 157.359 119.36 157.046 119.593C156.732 119.823 156.495 120.147 156.335 120.563C156.175 120.975 156.095 121.457 156.095 122.007ZM166.218 125.847C165.552 125.847 164.968 125.689 164.466 125.372C163.967 125.055 163.576 124.612 163.295 124.042C163.016 123.473 162.877 122.807 162.877 122.046C162.877 121.278 163.016 120.607 163.295 120.035C163.576 119.462 163.967 119.017 164.466 118.7C164.968 118.384 165.552 118.225 166.218 118.225C166.883 118.225 167.466 118.384 167.965 118.7C168.467 119.017 168.857 119.462 169.136 120.035C169.417 120.607 169.558 121.278 169.558 122.046C169.558 122.807 169.417 123.473 169.136 124.042C168.857 124.612 168.467 125.055 167.965 125.372C167.466 125.689 166.883 125.847 166.218 125.847ZM166.218 124.829C166.723 124.829 167.139 124.7 167.466 124.441C167.792 124.181 168.033 123.841 168.19 123.418C168.347 122.996 168.425 122.538 168.425 122.046C168.425 121.553 168.347 121.094 168.19 120.668C168.033 120.243 167.792 119.899 167.466 119.636C167.139 119.374 166.723 119.243 166.218 119.243C165.712 119.243 165.296 119.374 164.97 119.636C164.643 119.899 164.402 120.243 164.245 120.668C164.088 121.094 164.01 121.553 164.01 122.046C164.01 122.538 164.088 122.996 164.245 123.418C164.402 123.841 164.643 124.181 164.97 124.441C165.296 124.7 165.712 124.829 166.218 124.829ZM172.286 115.864V116.728C172.286 116.99 172.238 117.27 172.142 117.568C172.049 117.862 171.911 118.148 171.729 118.427C171.55 118.702 171.332 118.942 171.076 119.147L170.462 118.648C170.663 118.36 170.838 118.06 170.985 117.75C171.135 117.436 171.21 117.102 171.21 116.747V115.864H172.286ZM174.709 128.458C174.517 128.458 174.346 128.442 174.196 128.41C174.045 128.381 173.941 128.352 173.884 128.324L174.172 127.325C174.447 127.396 174.69 127.421 174.901 127.402C175.112 127.383 175.3 127.288 175.463 127.119C175.629 126.952 175.781 126.682 175.919 126.308L176.13 125.732L173.404 118.321H174.632L176.668 124.196H176.744L178.779 118.321H180.008L176.879 126.768C176.738 127.149 176.564 127.464 176.356 127.714C176.148 127.967 175.906 128.154 175.631 128.276C175.359 128.397 175.052 128.458 174.709 128.458ZM181.503 125.693V118.321H182.636V125.693H181.503ZM182.079 117.093C181.858 117.093 181.668 117.017 181.508 116.867C181.351 116.717 181.273 116.536 181.273 116.325C181.273 116.113 181.351 115.933 181.508 115.782C181.668 115.632 181.858 115.557 182.079 115.557C182.3 115.557 182.489 115.632 182.645 115.782C182.805 115.933 182.885 116.113 182.885 116.325C182.885 116.536 182.805 116.717 182.645 116.867C182.489 117.017 182.3 117.093 182.079 117.093ZM187.705 125.847C187.014 125.847 186.419 125.684 185.92 125.357C185.421 125.031 185.037 124.581 184.768 124.009C184.499 123.436 184.365 122.782 184.365 122.046C184.365 121.297 184.502 120.636 184.778 120.063C185.056 119.488 185.443 119.038 185.939 118.715C186.438 118.388 187.021 118.225 187.686 118.225C188.205 118.225 188.672 118.321 189.088 118.513C189.504 118.705 189.844 118.974 190.11 119.32C190.376 119.665 190.54 120.068 190.604 120.529H189.472C189.385 120.193 189.193 119.895 188.896 119.636C188.601 119.374 188.205 119.243 187.705 119.243C187.264 119.243 186.877 119.358 186.544 119.588C186.214 119.815 185.957 120.137 185.771 120.553C185.589 120.966 185.498 121.451 185.498 122.007C185.498 122.577 185.587 123.073 185.766 123.495C185.949 123.918 186.205 124.245 186.534 124.479C186.867 124.713 187.257 124.829 187.705 124.829C188 124.829 188.267 124.778 188.507 124.676C188.747 124.573 188.95 124.426 189.116 124.234C189.283 124.042 189.401 123.812 189.472 123.543H190.604C190.54 123.978 190.382 124.37 190.129 124.719C189.88 125.065 189.548 125.34 189.136 125.545C188.726 125.746 188.249 125.847 187.705 125.847ZM193.393 121.259V125.693H192.26V115.864H193.393V119.473H193.489C193.662 119.092 193.921 118.79 194.266 118.566C194.615 118.339 195.079 118.225 195.658 118.225C196.161 118.225 196.601 118.326 196.978 118.528C197.356 118.726 197.648 119.032 197.856 119.444C198.068 119.854 198.173 120.375 198.173 121.009V125.693H197.041V121.086C197.041 120.5 196.889 120.047 196.585 119.727C196.284 119.404 195.866 119.243 195.332 119.243C194.961 119.243 194.628 119.321 194.334 119.478C194.042 119.635 193.812 119.863 193.642 120.164C193.476 120.465 193.393 120.83 193.393 121.259ZM202.415 125.866C201.948 125.866 201.524 125.778 201.143 125.602C200.762 125.423 200.46 125.165 200.236 124.829C200.012 124.49 199.9 124.081 199.9 123.601C199.9 123.178 199.983 122.836 200.149 122.574C200.316 122.308 200.538 122.1 200.817 121.95C201.095 121.799 201.402 121.687 201.738 121.614C202.077 121.537 202.418 121.476 202.76 121.431C203.208 121.374 203.572 121.331 203.85 121.302C204.131 121.27 204.336 121.217 204.464 121.143C204.595 121.07 204.661 120.942 204.661 120.759V120.721C204.661 120.247 204.531 119.879 204.272 119.617C204.016 119.355 203.628 119.224 203.106 119.224C202.565 119.224 202.141 119.342 201.834 119.579C201.527 119.815 201.311 120.068 201.186 120.337L200.111 119.953C200.303 119.505 200.559 119.156 200.879 118.907C201.202 118.654 201.554 118.478 201.935 118.379C202.319 118.276 202.696 118.225 203.068 118.225C203.304 118.225 203.576 118.254 203.884 118.312C204.194 118.366 204.493 118.48 204.781 118.652C205.072 118.825 205.314 119.086 205.506 119.435C205.698 119.783 205.794 120.251 205.794 120.836V125.693H204.661V124.695H204.603C204.527 124.855 204.399 125.026 204.219 125.209C204.04 125.391 203.802 125.546 203.504 125.674C203.207 125.802 202.844 125.866 202.415 125.866ZM202.588 124.849C203.036 124.849 203.413 124.761 203.72 124.585C204.031 124.409 204.264 124.181 204.421 123.903C204.581 123.625 204.661 123.332 204.661 123.025V121.988C204.613 122.046 204.507 122.098 204.344 122.146C204.184 122.191 203.999 122.231 203.788 122.266C203.58 122.298 203.376 122.327 203.178 122.353C202.983 122.375 202.824 122.394 202.703 122.41C202.408 122.449 202.133 122.511 201.877 122.598C201.625 122.681 201.42 122.807 201.263 122.977C201.109 123.143 201.033 123.37 201.033 123.658C201.033 124.052 201.178 124.349 201.469 124.551C201.764 124.749 202.136 124.849 202.588 124.849ZM56.3038 129.864V139.693H55.1135V131.112H55.0559L52.6561 132.705V131.496L55.1135 129.864H56.3038ZM62.3368 139.828C61.6137 139.828 60.9978 139.631 60.489 139.237C59.9802 138.841 59.5915 138.266 59.3227 137.514C59.0539 136.759 58.9195 135.847 58.9195 134.779C58.9195 133.716 59.0539 132.809 59.3227 132.057C59.5947 131.302 59.985 130.726 60.4938 130.329C61.0058 129.929 61.6201 129.729 62.3368 129.729C63.0536 129.729 63.6663 129.929 64.1751 130.329C64.687 130.726 65.0774 131.302 65.3462 132.057C65.6181 132.809 65.7541 133.716 65.7541 134.779C65.7541 135.847 65.6197 136.759 65.351 137.514C65.0822 138.266 64.6934 138.841 64.1847 139.237C63.6759 139.631 63.06 139.828 62.3368 139.828ZM62.3368 138.772C63.0536 138.772 63.6103 138.426 64.0071 137.735C64.4039 137.044 64.6022 136.058 64.6022 134.779C64.6022 133.927 64.511 133.203 64.3287 132.604C64.1495 132.006 63.8903 131.55 63.5511 131.237C63.2152 130.923 62.8104 130.766 62.3368 130.766C61.6265 130.766 61.0713 131.117 60.6714 131.817C60.2714 132.515 60.0714 133.502 60.0714 134.779C60.0714 135.63 60.161 136.353 60.3402 136.948C60.5194 137.543 60.777 137.996 61.1129 138.306C61.4521 138.617 61.8601 138.772 62.3368 138.772ZM70.4769 137.966V131.63H71.552V137.966H70.4769ZM67.8467 135.335V134.26H74.1822V135.335H67.8467ZM81.0372 142.458C80.8452 142.458 80.674 142.442 80.5236 142.41C80.3732 142.381 80.2692 142.352 80.2117 142.324L80.4996 141.325C80.7748 141.396 81.018 141.421 81.2292 141.402C81.4403 141.383 81.6275 141.288 81.7907 141.119C81.9571 140.952 82.1091 140.682 82.2467 140.308L82.4579 139.732L79.7317 132.321H80.9604L82.9954 138.196H83.0722L85.1072 132.321H86.3359L83.2066 140.768C83.0658 141.149 82.8914 141.464 82.6834 141.714C82.4755 141.967 82.2339 142.154 81.9587 142.276C81.6867 142.397 81.3796 142.458 81.0372 142.458ZM87.831 139.693V132.321H88.9637V139.693H87.831ZM88.4069 131.093C88.1862 131.093 87.9958 131.017 87.8358 130.867C87.679 130.717 87.6006 130.536 87.6006 130.325C87.6006 130.113 87.679 129.933 87.8358 129.782C87.9958 129.632 88.1862 129.557 88.4069 129.557C88.6277 129.557 88.8165 129.632 88.9733 129.782C89.1333 129.933 89.2133 130.113 89.2133 130.325C89.2133 130.536 89.1333 130.717 88.9733 130.867C88.8165 131.017 88.6277 131.093 88.4069 131.093ZM91.0383 139.693V132.321H92.1326V133.435H92.2094C92.3438 133.07 92.587 132.774 92.9389 132.547C93.2909 132.32 93.6877 132.206 94.1292 132.206C94.2124 132.206 94.3164 132.208 94.4412 132.211C94.566 132.214 94.6604 132.219 94.7244 132.225V133.377C94.686 133.368 94.598 133.353 94.4604 133.334C94.326 133.312 94.1836 133.3 94.0332 133.3C93.6749 133.3 93.3549 133.376 93.0733 133.526C92.7949 133.673 92.5742 133.878 92.411 134.14C92.251 134.399 92.171 134.695 92.171 135.028V139.693H91.0383ZM96.0671 139.693V132.321H97.1998V139.693H96.0671ZM96.643 131.093C96.4222 131.093 96.2318 131.017 96.0719 130.867C95.9151 130.717 95.8367 130.536 95.8367 130.325C95.8367 130.113 95.9151 129.933 96.0719 129.782C96.2318 129.632 96.4222 129.557 96.643 129.557C96.8638 129.557 97.0526 129.632 97.2093 129.782C97.3693 129.933 97.4493 130.113 97.4493 130.325C97.4493 130.536 97.3693 130.717 97.2093 130.867C97.0526 131.017 96.8638 131.093 96.643 131.093ZM100.33 137.006L100.311 135.604H100.541L103.767 132.321H105.168L101.732 135.796H101.636L100.33 137.006ZM99.2744 139.693V129.864H100.407V139.693H99.2744ZM103.959 139.693L101.079 136.046L101.885 135.259L105.399 139.693H103.959ZM111.56 129.864V139.693H110.427V129.864H111.56ZM116.63 139.847C115.964 139.847 115.38 139.689 114.878 139.372C114.379 139.055 113.988 138.612 113.707 138.042C113.428 137.473 113.289 136.807 113.289 136.046C113.289 135.278 113.428 134.607 113.707 134.035C113.988 133.462 114.379 133.017 114.878 132.7C115.38 132.384 115.964 132.225 116.63 132.225C117.295 132.225 117.878 132.384 118.377 132.7C118.879 133.017 119.269 133.462 119.548 134.035C119.829 134.607 119.97 135.278 119.97 136.046C119.97 136.807 119.829 137.473 119.548 138.042C119.269 138.612 118.879 139.055 118.377 139.372C117.878 139.689 117.295 139.847 116.63 139.847ZM116.63 138.829C117.135 138.829 117.551 138.7 117.878 138.441C118.204 138.181 118.445 137.841 118.602 137.418C118.759 136.996 118.837 136.538 118.837 136.046C118.837 135.553 118.759 135.094 118.602 134.668C118.445 134.243 118.204 133.899 117.878 133.636C117.551 133.374 117.135 133.243 116.63 133.243C116.124 133.243 115.708 133.374 115.382 133.636C115.055 133.899 114.814 134.243 114.657 134.668C114.5 135.094 114.422 135.553 114.422 136.046C114.422 136.538 114.5 136.996 114.657 137.418C114.814 137.841 115.055 138.181 115.382 138.441C115.708 138.7 116.124 138.829 116.63 138.829ZM122.165 142.458C121.973 142.458 121.802 142.442 121.651 142.41C121.501 142.381 121.397 142.352 121.339 142.324L121.627 141.325C121.902 141.396 122.146 141.421 122.357 141.402C122.568 141.383 122.755 141.288 122.918 141.119C123.085 140.952 123.237 140.682 123.374 140.308L123.585 139.732L120.859 132.321H122.088L124.123 138.196H124.2L126.235 132.321H127.463L124.334 140.768C124.193 141.149 124.019 141.464 123.811 141.714C123.603 141.967 123.361 142.154 123.086 142.276C122.814 142.397 122.507 142.458 122.165 142.458ZM128.959 139.693V132.321H130.091V139.693H128.959ZM129.534 131.093C129.314 131.093 129.123 131.017 128.963 130.867C128.807 130.717 128.728 130.536 128.728 130.325C128.728 130.113 128.807 129.933 128.963 129.782C129.123 129.632 129.314 129.557 129.534 129.557C129.755 129.557 129.944 129.632 130.101 129.782C130.261 129.933 130.341 130.113 130.341 130.325C130.341 130.536 130.261 130.717 130.101 130.867C129.944 131.017 129.755 131.093 129.534 131.093ZM133.299 135.259V139.693H132.166V129.864H133.299V133.473H133.395C133.567 133.092 133.827 132.79 134.172 132.566C134.521 132.339 134.985 132.225 135.564 132.225C136.066 132.225 136.506 132.326 136.884 132.528C137.261 132.726 137.554 133.032 137.762 133.444C137.973 133.854 138.079 134.375 138.079 135.009V139.693H136.946V135.086C136.946 134.5 136.794 134.047 136.49 133.727C136.19 133.404 135.772 133.243 135.238 133.243C134.866 133.243 134.534 133.321 134.239 133.478C133.948 133.635 133.718 133.863 133.548 134.164C133.382 134.465 133.299 134.83 133.299 135.259ZM142.321 139.866C141.853 139.866 141.429 139.778 141.049 139.602C140.668 139.423 140.366 139.165 140.142 138.829C139.918 138.49 139.806 138.081 139.806 137.601C139.806 137.178 139.889 136.836 140.055 136.574C140.222 136.308 140.444 136.1 140.722 135.95C141.001 135.799 141.308 135.687 141.644 135.614C141.983 135.537 142.324 135.476 142.666 135.431C143.114 135.374 143.477 135.331 143.756 135.302C144.037 135.27 144.242 135.217 144.37 135.143C144.501 135.07 144.567 134.942 144.567 134.759V134.721C144.567 134.247 144.437 133.879 144.178 133.617C143.922 133.355 143.533 133.224 143.012 133.224C142.471 133.224 142.047 133.342 141.74 133.579C141.433 133.815 141.217 134.068 141.092 134.337L140.017 133.953C140.209 133.505 140.465 133.156 140.785 132.907C141.108 132.654 141.46 132.478 141.841 132.379C142.225 132.276 142.602 132.225 142.973 132.225C143.21 132.225 143.482 132.254 143.789 132.312C144.1 132.366 144.399 132.48 144.687 132.652C144.978 132.825 145.22 133.086 145.411 133.435C145.603 133.783 145.699 134.251 145.699 134.836V139.693H144.567V138.695H144.509C144.432 138.855 144.304 139.026 144.125 139.209C143.946 139.391 143.708 139.546 143.41 139.674C143.112 139.802 142.749 139.866 142.321 139.866ZM142.493 138.849C142.941 138.849 143.319 138.761 143.626 138.585C143.936 138.409 144.17 138.181 144.327 137.903C144.487 137.625 144.567 137.332 144.567 137.025V135.988C144.519 136.046 144.413 136.098 144.25 136.146C144.09 136.191 143.904 136.231 143.693 136.266C143.485 136.298 143.282 136.327 143.084 136.353C142.889 136.375 142.73 136.394 142.609 136.41C142.314 136.449 142.039 136.511 141.783 136.598C141.53 136.681 141.325 136.807 141.169 136.977C141.015 137.143 140.938 137.37 140.938 137.658C140.938 138.052 141.084 138.349 141.375 138.551C141.669 138.749 142.042 138.849 142.493 138.849ZM148.9 129.864V139.693H147.767V129.864H148.9ZM153.144 139.866C152.676 139.866 152.252 139.778 151.872 139.602C151.491 139.423 151.189 139.165 150.965 138.829C150.741 138.49 150.629 138.081 150.629 137.601C150.629 137.178 150.712 136.836 150.878 136.574C151.045 136.308 151.267 136.1 151.545 135.95C151.824 135.799 152.131 135.687 152.467 135.614C152.806 135.537 153.147 135.476 153.489 135.431C153.937 135.374 154.3 135.331 154.579 135.302C154.86 135.27 155.065 135.217 155.193 135.143C155.324 135.07 155.39 134.942 155.39 134.759V134.721C155.39 134.247 155.26 133.879 155.001 133.617C154.745 133.355 154.356 133.224 153.835 133.224C153.294 133.224 152.87 133.342 152.563 133.579C152.256 133.815 152.04 134.068 151.915 134.337L150.84 133.953C151.032 133.505 151.288 133.156 151.608 132.907C151.931 132.654 152.283 132.478 152.664 132.379C153.048 132.276 153.425 132.225 153.796 132.225C154.033 132.225 154.305 132.254 154.612 132.312C154.923 132.366 155.222 132.48 155.51 132.652C155.801 132.825 156.043 133.086 156.235 133.435C156.427 133.783 156.523 134.251 156.523 134.836V139.693H155.39V138.695H155.332C155.255 138.855 155.127 139.026 154.948 139.209C154.769 139.391 154.531 139.546 154.233 139.674C153.936 139.802 153.572 139.866 153.144 139.866ZM153.316 138.849C153.764 138.849 154.142 138.761 154.449 138.585C154.759 138.409 154.993 138.181 155.15 137.903C155.31 137.625 155.39 137.332 155.39 137.025V135.988C155.342 136.046 155.236 136.098 155.073 136.146C154.913 136.191 154.727 136.231 154.516 136.266C154.308 136.298 154.105 136.327 153.907 136.353C153.712 136.375 153.553 136.394 153.432 136.41C153.137 136.449 152.862 136.511 152.606 136.598C152.353 136.681 152.148 136.807 151.992 136.977C151.838 137.143 151.761 137.37 151.761 137.658C151.761 138.052 151.907 138.349 152.198 138.551C152.492 138.749 152.865 138.849 153.316 138.849ZM158.59 139.693V132.321H159.684V133.435H159.761C159.895 133.07 160.139 132.774 160.491 132.547C160.843 132.32 161.239 132.206 161.681 132.206C161.764 132.206 161.868 132.208 161.993 132.211C162.118 132.214 162.212 132.219 162.276 132.225V133.377C162.238 133.368 162.15 133.353 162.012 133.334C161.878 133.312 161.735 133.3 161.585 133.3C161.226 133.3 160.907 133.376 160.625 133.526C160.347 133.673 160.126 133.878 159.963 134.14C159.803 134.399 159.723 134.695 159.723 135.028V139.693H158.59Z" fill="#B3D4FF"/>
<rect opacity="0.3" x="15.0476" y="59.3545" width="200.635" height="1.67196" fill="white"/>
<path d="M31.7671 78.582L33.4914 83.6149L38.2694 81.2754L35.93 86.0535L40.9628 87.7778L35.93 89.5021L38.2694 94.2802L33.4914 91.9407L31.7671 96.9736L30.0427 91.9407L25.2647 94.2802L27.6041 89.5021L22.5713 87.7778L27.6041 86.0535L25.2647 81.2754L30.0427 83.6149L31.7671 78.582Z" fill="white"/>
<path d="M31.7671 117.873L33.4914 122.906L38.2694 120.566L35.93 125.344L40.9628 127.069L35.93 128.793L38.2694 133.571L33.4914 131.232L31.7671 136.265L30.0427 131.232L25.2647 133.571L27.6041 128.793L22.5713 127.069L27.6041 125.344L25.2647 120.566L30.0427 122.906L31.7671 117.873Z" fill="white"/>
<defs>
<linearGradient id="paint0_linear_3008_4" x1="-84.8518" y1="-110.349" x2="186.841" y2="150.058" gradientUnits="userSpaceOnUse">
<stop stop-color="#014499"/>
<stop offset="1" stop-color="#0271FF"/>
</linearGradient>
<linearGradient id="paint1_linear_3008_4" x1="9.19577" y1="-2.64744e-06" x2="213.593" y2="164.27" gradientUnits="userSpaceOnUse">
<stop stop-color="white"/>
<stop offset="1" stop-color="white" stop-opacity="0"/>
</linearGradient>
</defs>
</svg>
