<svg width="307" height="101" viewBox="0 0 307 101" fill="none" xmlns="http://www.w3.org/2000/svg">
<path d="M67.7767 6.10063V15H66.2104V6.57526L67.0647 7.33468L63.3389 7.9873V6.74138L66.602 6.10063H67.7767ZM70.5498 6.10063H77.0523V7.37027H71.06L71.7126 6.95497L71.2143 10.7046L70.7515 10.7164C70.9334 10.4396 71.1787 10.1785 71.4872 9.93329C71.8036 9.68806 72.1833 9.4903 72.6263 9.34C73.0772 9.18179 73.5835 9.10268 74.1451 9.10268C74.9204 9.10268 75.5769 9.23716 76.1149 9.50612C76.6528 9.76717 77.0602 10.1231 77.337 10.574C77.6218 11.0249 77.7642 11.5352 77.7642 12.1047C77.7642 12.698 77.5981 13.2241 77.2658 13.6829C76.9336 14.1417 76.4629 14.5056 75.8538 14.7745C75.2526 15.0356 74.5367 15.1661 73.7061 15.1661C72.8755 15.1661 72.1556 15.0435 71.5465 14.7983C70.9374 14.5531 70.4549 14.2208 70.0989 13.8016C69.7508 13.3744 69.5372 12.8997 69.4581 12.3777H71.0363C71.147 12.8444 71.4318 13.2122 71.8906 13.4812C72.3494 13.7501 72.9546 13.8846 73.7061 13.8846C74.2124 13.8846 74.6474 13.8134 75.0113 13.671C75.3831 13.5207 75.6719 13.3151 75.8775 13.054C76.0832 12.785 76.186 12.4686 76.186 12.1047C76.186 11.7488 76.099 11.4403 75.925 11.1792C75.7589 10.9102 75.5018 10.7046 75.1537 10.5622C74.8136 10.4119 74.3785 10.3367 73.8485 10.3367C73.4134 10.3367 73.0218 10.3881 72.6738 10.491C72.3336 10.5938 72.037 10.7243 71.7838 10.8826C71.5386 11.0408 71.3329 11.2069 71.1668 11.3809H69.8616L70.5498 6.10063ZM83.7967 15.1661C82.8237 15.1661 81.9852 14.9763 81.2811 14.5966C80.5771 14.2089 80.0352 13.671 79.6555 12.9828C79.2758 12.2867 79.0859 11.4758 79.0859 10.5503C79.0859 9.62478 79.2758 8.8179 79.6555 8.12969C80.0352 7.43356 80.5771 6.89564 81.2811 6.51593C81.9852 6.12832 82.8237 5.93451 83.7967 5.93451C84.7697 5.93451 85.6042 6.12832 86.3004 6.51593C87.0044 6.89564 87.5463 7.43356 87.926 8.12969C88.3057 8.8179 88.4955 9.62478 88.4955 10.5503C88.4955 11.4758 88.3057 12.2867 87.926 12.9828C87.5463 13.671 87.0044 14.2089 86.3004 14.5966C85.6042 14.9763 84.7697 15.1661 83.7967 15.1661ZM83.7967 13.8727C84.7855 13.8727 85.5528 13.584 86.0986 13.0065C86.6445 12.4212 86.9174 11.6024 86.9174 10.5503C86.9174 9.49821 86.6445 8.68342 86.0986 8.10595C85.5528 7.52057 84.7855 7.22788 83.7967 7.22788C82.8079 7.22788 82.0366 7.52057 81.4828 8.10595C80.937 8.68342 80.6641 9.49821 80.6641 10.5503C80.6641 11.6024 80.937 12.4212 81.4828 13.0065C82.0366 13.584 82.8079 13.8727 83.7967 13.8727ZM92.4063 14.1219V7.47707H93.5928V14.1219H92.4063ZM89.6771 11.3928V10.2062H96.322V11.3928H89.6771ZM108.066 12.9591C108.066 13.41 107.94 13.8016 107.687 14.1338C107.434 14.466 107.05 14.7231 106.536 14.9051C106.021 15.0791 105.377 15.1661 104.602 15.1661C103.803 15.1661 103.11 15.0672 102.525 14.8695C101.94 14.6638 101.485 14.379 101.16 14.0151C100.844 13.6433 100.674 13.2162 100.65 12.7336H102.217C102.264 12.9868 102.391 13.2122 102.596 13.41C102.81 13.5998 103.087 13.7462 103.427 13.849C103.775 13.9519 104.17 14.0033 104.613 14.0033C105.254 14.0033 105.737 13.9281 106.061 13.7778C106.385 13.6196 106.548 13.3823 106.548 13.0659C106.548 12.8523 106.437 12.6901 106.215 12.5794C106.002 12.4686 105.594 12.3856 104.993 12.3302L103.676 12.2115C102.964 12.1482 102.402 12.0217 101.991 11.8318C101.58 11.6341 101.287 11.3967 101.113 11.1199C100.939 10.8351 100.852 10.5345 100.852 10.2181C100.852 9.75926 100.994 9.3756 101.279 9.06709C101.564 8.75857 101.959 8.52521 102.466 8.367C102.972 8.20088 103.561 8.11782 104.234 8.11782C104.93 8.11782 105.551 8.2167 106.097 8.41447C106.642 8.60432 107.078 8.87328 107.402 9.22134C107.726 9.5615 107.908 9.95702 107.948 10.4079H106.381C106.35 10.226 106.255 10.0519 106.097 9.88583C105.946 9.7118 105.713 9.56941 105.397 9.45866C105.088 9.34 104.673 9.28067 104.151 9.28067C103.597 9.28067 103.162 9.35187 102.845 9.49426C102.537 9.63665 102.383 9.84628 102.383 10.1231C102.383 10.2972 102.478 10.4475 102.667 10.574C102.857 10.6927 103.209 10.7758 103.723 10.8232L105.42 10.9775C106.101 11.0408 106.631 11.1634 107.01 11.3453C107.398 11.5194 107.671 11.7448 107.829 12.0217C107.987 12.2985 108.066 12.611 108.066 12.9591ZM113.268 15.1661C112.454 15.1661 111.738 15.0198 111.121 14.7271C110.512 14.4265 110.033 14.0112 109.685 13.4812C109.345 12.9512 109.175 12.3381 109.175 11.642C109.175 10.9379 109.345 10.3249 109.685 9.80277C110.033 9.27276 110.512 8.86141 111.121 8.56872C111.738 8.26812 112.454 8.11782 113.268 8.11782C114.083 8.11782 114.795 8.26812 115.404 8.56872C116.021 8.86141 116.5 9.27276 116.84 9.80277C117.188 10.3249 117.362 10.9379 117.362 11.642C117.362 12.3381 117.188 12.9512 116.84 13.4812C116.5 14.0112 116.021 14.4265 115.404 14.7271C114.795 15.0198 114.083 15.1661 113.268 15.1661ZM113.268 13.9558C113.791 13.9558 114.237 13.8609 114.609 13.671C114.989 13.4812 115.282 13.2162 115.487 12.876C115.693 12.528 115.796 12.1166 115.796 11.642C115.796 11.1673 115.693 10.7599 115.487 10.4198C115.282 10.0717 114.989 9.80277 114.609 9.61291C114.237 9.42306 113.791 9.32813 113.268 9.32813C112.754 9.32813 112.307 9.42306 111.928 9.61291C111.548 9.80277 111.255 10.0717 111.05 10.4198C110.844 10.7599 110.741 11.1673 110.741 11.642C110.741 12.1166 110.844 12.528 111.05 12.876C111.255 13.2162 111.548 13.4812 111.928 13.671C112.307 13.8609 112.754 13.9558 113.268 13.9558ZM117.966 9.47052V8.77044L119.402 8.4026L120.043 6.5278H120.945V8.28394H124.065V9.47052H120.945V12.3777C120.945 12.9393 121.063 13.3348 121.301 13.5642C121.546 13.7857 121.942 13.8965 122.487 13.8965C122.835 13.8965 123.144 13.8609 123.413 13.7897C123.682 13.7106 123.939 13.5998 124.184 13.4574V14.7271C123.978 14.8299 123.686 14.9288 123.306 15.0237C122.934 15.1187 122.551 15.1661 122.155 15.1661C121.499 15.1661 120.969 15.0593 120.565 14.8457C120.162 14.6242 119.865 14.3236 119.675 13.9439C119.493 13.5563 119.402 13.1133 119.402 12.615V9.47052H117.966ZM128.357 15.1661C127.74 15.1661 127.214 15.0396 126.779 14.7864C126.352 14.5333 126.024 14.1694 125.794 13.6948C125.565 13.2201 125.45 12.6545 125.45 11.9979V8.28394H126.993V11.7606C126.993 12.4568 127.151 12.9868 127.467 13.3506C127.792 13.7066 128.254 13.8846 128.856 13.8846C129.291 13.8846 129.662 13.7897 129.971 13.5998C130.287 13.41 130.533 13.141 130.707 12.793C130.881 12.437 130.968 12.0256 130.968 11.5589L131.502 11.8556C131.438 12.5438 131.264 13.1371 130.98 13.6354C130.695 14.1259 130.327 14.5056 129.876 14.7745C129.425 15.0356 128.919 15.1661 128.357 15.1661ZM131.359 15L130.968 12.5794V8.28394H132.51V12.8167L132.902 15H131.359ZM138.176 14.3118H137.583L140.336 8.28394H141.985L138.71 15H136.978L133.703 8.28394H135.4L138.176 14.3118ZM145.821 8.28394H147.364L147.767 10.7046V15H146.225V10.4791L145.821 8.28394ZM150.247 8.11782C150.84 8.11782 151.343 8.24439 151.754 8.49753C152.173 8.75066 152.49 9.11455 152.703 9.58918C152.925 10.0559 153.036 10.6215 153.036 11.286V15H151.493V11.5352C151.493 10.8311 151.343 10.3011 151.042 9.94516C150.749 9.58127 150.318 9.39933 149.749 9.39933C149.345 9.39933 148.993 9.49821 148.693 9.69597C148.4 9.88583 148.171 10.1548 148.004 10.5029C147.846 10.8509 147.767 11.2583 147.767 11.725L147.221 11.4284C147.292 10.7323 147.463 10.139 147.732 9.64851C148.008 9.15806 148.36 8.78231 148.788 8.52126C149.223 8.2523 149.709 8.11782 150.247 8.11782ZM155.504 8.11782C156.097 8.11782 156.603 8.24439 157.022 8.49753C157.442 8.75066 157.758 9.11455 157.972 9.58918C158.193 10.0559 158.304 10.6215 158.304 11.286V15H156.761V11.5352C156.761 10.8311 156.611 10.3011 156.311 9.94516C156.018 9.58127 155.587 9.39933 155.017 9.39933C154.614 9.39933 154.262 9.49821 153.961 9.69597C153.668 9.88583 153.439 10.1548 153.273 10.5029C153.115 10.8509 153.036 11.2583 153.036 11.725L152.49 11.4284C152.561 10.7323 152.731 10.139 153 9.64851C153.277 9.15806 153.629 8.78231 154.056 8.52126C154.491 8.2523 154.974 8.11782 155.504 8.11782ZM163.754 15.1661C162.97 15.1661 162.274 15.0198 161.665 14.7271C161.056 14.4265 160.578 14.0112 160.229 13.4812C159.881 12.9512 159.707 12.3341 159.707 11.6301C159.707 10.934 159.87 10.3249 160.194 9.80277C160.526 9.27276 160.981 8.86141 161.558 8.56872C162.144 8.26812 162.812 8.11782 163.564 8.11782C164.315 8.11782 164.964 8.2879 165.51 8.62805C166.064 8.96029 166.491 9.43097 166.791 10.0401C167.092 10.6492 167.242 11.3651 167.242 12.1878H160.918V11.0131H166.471L165.7 11.4521C165.676 11.0091 165.569 10.6294 165.379 10.313C165.197 9.99658 164.948 9.7553 164.632 9.58918C164.323 9.41515 163.955 9.32813 163.528 9.32813C163.077 9.32813 162.682 9.41911 162.342 9.60105C162.009 9.78299 161.748 10.0401 161.558 10.3723C161.369 10.6967 161.274 11.0843 161.274 11.5352C161.274 12.0335 161.384 12.4647 161.606 12.8286C161.835 13.1924 162.156 13.4733 162.567 13.671C162.986 13.8609 163.481 13.9558 164.05 13.9558C164.564 13.9558 165.091 13.8767 165.628 13.7185C166.166 13.5524 166.641 13.323 167.052 13.0303V14.1457C166.641 14.4621 166.139 14.7113 165.545 14.8932C164.96 15.0752 164.363 15.1661 163.754 15.1661ZM168.428 8.28394H169.971L170.374 10.7046V15H168.832V10.4791L168.428 8.28394ZM173.044 8.11782C173.677 8.11782 174.215 8.24439 174.658 8.49753C175.101 8.75066 175.437 9.11455 175.666 9.58918C175.904 10.0559 176.022 10.6215 176.022 11.286V15H174.48V11.5352C174.48 10.8311 174.314 10.3011 173.982 9.94516C173.657 9.58127 173.179 9.39933 172.546 9.39933C172.111 9.39933 171.727 9.49821 171.395 9.69597C171.07 9.88583 170.817 10.1548 170.635 10.5029C170.461 10.8509 170.374 11.2583 170.374 11.725L169.828 11.4284C169.9 10.7323 170.082 10.139 170.374 9.64851C170.667 9.15806 171.043 8.78231 171.502 8.52126C171.96 8.2523 172.475 8.11782 173.044 8.11782ZM181.471 15.1661C180.688 15.1661 179.992 15.0198 179.382 14.7271C178.773 14.4265 178.295 14.0112 177.947 13.4812C177.599 12.9512 177.425 12.3341 177.425 11.6301C177.425 10.934 177.587 10.3249 177.911 9.80277C178.243 9.27276 178.698 8.86141 179.276 8.56872C179.861 8.26812 180.529 8.11782 181.281 8.11782C182.032 8.11782 182.681 8.2879 183.227 8.62805C183.781 8.96029 184.208 9.43097 184.508 10.0401C184.809 10.6492 184.959 11.3651 184.959 12.1878H178.635V11.0131H184.188L183.417 11.4521C183.393 11.0091 183.286 10.6294 183.096 10.313C182.914 9.99658 182.665 9.7553 182.349 9.58918C182.04 9.41515 181.673 9.32813 181.245 9.32813C180.794 9.32813 180.399 9.41911 180.059 9.60105C179.727 9.78299 179.465 10.0401 179.276 10.3723C179.086 10.6967 178.991 11.0843 178.991 11.5352C178.991 12.0335 179.102 12.4647 179.323 12.8286C179.552 13.1924 179.873 13.4733 180.284 13.671C180.703 13.8609 181.198 13.9558 181.767 13.9558C182.282 13.9558 182.808 13.8767 183.346 13.7185C183.884 13.5524 184.358 13.323 184.769 13.0303V14.1457C184.358 14.4621 183.856 14.7113 183.263 14.8932C182.677 15.0752 182.08 15.1661 181.471 15.1661ZM186.466 8.23648L187.237 8.37887L188.008 8.23648V16.9579H186.466V8.23648ZM187.237 7.394C186.944 7.394 186.703 7.3149 186.513 7.15669C186.323 6.99057 186.229 6.77698 186.229 6.51593C186.229 6.25488 186.323 6.04526 186.513 5.88704C186.703 5.72092 186.944 5.63786 187.237 5.63786C187.538 5.63786 187.779 5.72092 187.961 5.88704C188.151 6.04526 188.246 6.25488 188.246 6.51593C188.246 6.77698 188.151 6.99057 187.961 7.15669C187.779 7.3149 187.538 7.394 187.237 7.394ZM193.545 15.1661C192.762 15.1661 192.065 15.0198 191.456 14.7271C190.847 14.4265 190.369 14.0112 190.021 13.4812C189.673 12.9512 189.498 12.3341 189.498 11.6301C189.498 10.934 189.661 10.3249 189.985 9.80277C190.317 9.27276 190.772 8.86141 191.35 8.56872C191.935 8.26812 192.603 8.11782 193.355 8.11782C194.106 8.11782 194.755 8.2879 195.301 8.62805C195.855 8.96029 196.282 9.43097 196.582 10.0401C196.883 10.6492 197.033 11.3651 197.033 12.1878H190.709V11.0131H196.262L195.491 11.4521C195.467 11.0091 195.36 10.6294 195.17 10.313C194.988 9.99658 194.739 9.7553 194.423 9.58918C194.114 9.41515 193.746 9.32813 193.319 9.32813C192.868 9.32813 192.473 9.41911 192.133 9.60105C191.8 9.78299 191.539 10.0401 191.35 10.3723C191.16 10.6967 191.065 11.0843 191.065 11.5352C191.065 12.0335 191.176 12.4647 191.397 12.8286C191.626 13.1924 191.947 13.4733 192.358 13.671C192.777 13.8609 193.272 13.9558 193.841 13.9558C194.356 13.9558 194.882 13.8767 195.42 13.7185C195.957 13.5524 196.432 13.323 196.843 13.0303V14.1457C196.432 14.4621 195.93 14.7113 195.336 14.8932C194.751 15.0752 194.154 15.1661 193.545 15.1661ZM198.219 8.28394H199.762L200.165 10.7283V15H198.623V10.4317L198.219 8.28394ZM203.571 8.23648V9.58918C203.397 9.54172 203.207 9.50612 203.001 9.48239C202.796 9.45866 202.602 9.44679 202.42 9.44679C201.985 9.44679 201.597 9.54172 201.257 9.73157C200.917 9.92143 200.648 10.2062 200.45 10.5859C200.26 10.9577 200.165 11.4165 200.165 11.9623L199.809 11.5233C199.841 11.0487 199.92 10.6057 200.047 10.1943C200.181 9.77508 200.363 9.41119 200.593 9.10268C200.83 8.79417 201.119 8.5529 201.459 8.37887C201.799 8.20484 202.194 8.11782 202.645 8.11782C202.804 8.11782 202.966 8.12969 203.132 8.15342C203.298 8.16924 203.444 8.19692 203.571 8.23648ZM204.78 5.86331H206.322V15H204.78V5.86331ZM214.457 15L214.196 12.5082L214.505 11.642L214.196 10.7876L214.457 8.28394H216.047L215.691 11.642L216.047 15H214.457ZM214.932 11.642C214.781 12.346 214.532 12.963 214.184 13.493C213.836 14.023 213.405 14.4344 212.891 14.7271C212.384 15.0198 211.819 15.1661 211.194 15.1661C210.537 15.1661 209.956 15.0198 209.45 14.7271C208.943 14.4265 208.548 14.0112 208.263 13.4812C207.978 12.9512 207.836 12.3381 207.836 11.642C207.836 10.9379 207.978 10.3249 208.263 9.80277C208.548 9.27276 208.943 8.86141 209.45 8.56872C209.956 8.26812 210.537 8.11782 211.194 8.11782C211.819 8.11782 212.384 8.26416 212.891 8.55686C213.405 8.84955 213.836 9.26089 214.184 9.7909C214.54 10.313 214.789 10.93 214.932 11.642ZM209.402 11.642C209.402 12.0929 209.493 12.4924 209.675 12.8404C209.865 13.1806 210.122 13.4495 210.446 13.6473C210.771 13.8371 211.143 13.9321 211.562 13.9321C211.989 13.9321 212.384 13.8371 212.748 13.6473C213.112 13.4495 213.433 13.1806 213.71 12.8404C213.994 12.4924 214.22 12.0929 214.386 11.642C214.22 11.1911 213.994 10.7955 213.71 10.4554C213.433 10.1073 213.112 9.83836 212.748 9.64851C212.384 9.45075 211.989 9.35187 211.562 9.35187C211.143 9.35187 210.771 9.45075 210.446 9.64851C210.122 9.83836 209.865 10.1073 209.675 10.4554C209.493 10.7955 209.402 11.1911 209.402 11.642ZM217.449 8.28394H218.991L219.395 10.7283V15H217.852V10.4317L217.449 8.28394ZM222.8 8.23648V9.58918C222.626 9.54172 222.436 9.50612 222.23 9.48239C222.025 9.45866 221.831 9.44679 221.649 9.44679C221.214 9.44679 220.826 9.54172 220.486 9.73157C220.146 9.92143 219.877 10.2062 219.679 10.5859C219.489 10.9577 219.395 11.4165 219.395 11.9623L219.039 11.5233C219.07 11.0487 219.149 10.6057 219.276 10.1943C219.41 9.77508 219.592 9.41119 219.822 9.10268C220.059 8.79417 220.348 8.5529 220.688 8.37887C221.028 8.20484 221.424 8.11782 221.874 8.11782C222.033 8.11782 222.195 8.12969 222.361 8.15342C222.527 8.16924 222.673 8.19692 222.8 8.23648ZM224.009 8.23648L224.78 8.37887L225.551 8.23648V15H224.009V8.23648ZM224.78 7.394C224.487 7.394 224.246 7.3149 224.056 7.15669C223.866 6.99057 223.771 6.77698 223.771 6.51593C223.771 6.25488 223.866 6.04526 224.056 5.88704C224.246 5.72092 224.487 5.63786 224.78 5.63786C225.081 5.63786 225.322 5.72092 225.504 5.88704C225.694 6.04526 225.789 6.25488 225.789 6.51593C225.789 6.77698 225.694 6.99057 225.504 7.15669C225.322 7.3149 225.081 7.394 224.78 7.394ZM233.71 15L233.449 12.4488L233.793 11.6538L233.461 10.7402L233.959 5.86331H235.549L234.944 11.547L235.288 15H233.71ZM234.161 11.642C234.011 12.346 233.761 12.963 233.413 13.493C233.065 14.023 232.634 14.4344 232.12 14.7271C231.614 15.0198 231.048 15.1661 230.423 15.1661C229.767 15.1661 229.185 15.0198 228.679 14.7271C228.173 14.4265 227.777 14.0112 227.492 13.4812C227.207 12.9512 227.065 12.3381 227.065 11.642C227.065 10.9379 227.207 10.3249 227.492 9.80277C227.777 9.27276 228.173 8.86141 228.679 8.56872C229.185 8.26812 229.767 8.11782 230.423 8.11782C231.048 8.11782 231.614 8.26416 232.12 8.55686C232.634 8.84955 233.065 9.26089 233.413 9.7909C233.769 10.313 234.018 10.93 234.161 11.642ZM228.631 11.642C228.631 12.0929 228.722 12.4924 228.904 12.8404C229.094 13.1806 229.351 13.4495 229.676 13.6473C230 13.8371 230.372 13.9321 230.791 13.9321C231.218 13.9321 231.614 13.8371 231.977 13.6473C232.341 13.4495 232.662 13.1806 232.939 12.8404C233.223 12.4924 233.449 12.0929 233.615 11.642C233.449 11.1911 233.223 10.7955 232.939 10.4554C232.662 10.1073 232.341 9.83836 231.977 9.64851C231.614 9.45075 231.218 9.35187 230.791 9.35187C230.372 9.35187 230 9.45075 229.676 9.64851C229.351 9.83836 229.094 10.1073 228.904 10.4554C228.722 10.7955 228.631 11.1911 228.631 11.642ZM243.275 15L243.014 12.5082L243.322 11.642L243.014 10.7876L243.275 8.28394H244.865L244.509 11.642L244.865 15H243.275ZM243.749 11.642C243.599 12.346 243.35 12.963 243.002 13.493C242.654 14.023 242.223 14.4344 241.708 14.7271C241.202 15.0198 240.637 15.1661 240.012 15.1661C239.355 15.1661 238.774 15.0198 238.267 14.7271C237.761 14.4265 237.366 14.0112 237.081 13.4812C236.796 12.9512 236.654 12.3381 236.654 11.642C236.654 10.9379 236.796 10.3249 237.081 9.80277C237.366 9.27276 237.761 8.86141 238.267 8.56872C238.774 8.26812 239.355 8.11782 240.012 8.11782C240.637 8.11782 241.202 8.26416 241.708 8.55686C242.223 8.84955 242.654 9.26089 243.002 9.7909C243.358 10.313 243.607 10.93 243.749 11.642ZM238.22 11.642C238.22 12.0929 238.311 12.4924 238.493 12.8404C238.683 13.1806 238.94 13.4495 239.264 13.6473C239.588 13.8371 239.96 13.9321 240.38 13.9321C240.807 13.9321 241.202 13.8371 241.566 13.6473C241.93 13.4495 242.25 13.1806 242.527 12.8404C242.812 12.4924 243.037 12.0929 243.204 11.642C243.037 11.1911 242.812 10.7955 242.527 10.4554C242.25 10.1073 241.93 9.83836 241.566 9.64851C241.202 9.45075 240.807 9.35187 240.38 9.35187C239.96 9.35187 239.588 9.45075 239.264 9.64851C238.94 9.83836 238.683 10.1073 238.493 10.4554C238.311 10.7955 238.22 11.1911 238.22 11.642ZM62.5165 20.2839H64.0591L64.4625 22.7046V27H62.92V22.4791L62.5165 20.2839ZM66.9425 20.1178C67.5358 20.1178 68.0381 20.2444 68.4494 20.4975C68.8687 20.7507 69.1851 21.1145 69.3987 21.5892C69.6202 22.0559 69.7309 22.6215 69.7309 23.286V27H68.1884V23.5352C68.1884 22.8311 68.0381 22.3011 67.7375 21.9452C67.4448 21.5813 67.0137 21.3993 66.4441 21.3993C66.0407 21.3993 65.6887 21.4982 65.3881 21.696C65.0954 21.8858 64.866 22.1548 64.6998 22.5029C64.5416 22.8509 64.4625 23.2583 64.4625 23.725L63.9167 23.4284C63.9879 22.7323 64.158 22.139 64.4269 21.6485C64.7038 21.1581 65.0558 20.7823 65.483 20.5213C65.9181 20.2523 66.4046 20.1178 66.9425 20.1178ZM72.199 20.1178C72.7923 20.1178 73.2986 20.2444 73.7179 20.4975C74.1371 20.7507 74.4535 21.1145 74.6671 21.5892C74.8886 22.0559 74.9994 22.6215 74.9994 23.286V27H73.4568V23.5352C73.4568 22.8311 73.3065 22.3011 73.0059 21.9452C72.7132 21.5813 72.2821 21.3993 71.7125 21.3993C71.3091 21.3993 70.9571 21.4982 70.6565 21.696C70.3638 21.8858 70.1344 22.1548 69.9683 22.5029C69.8101 22.8509 69.7309 23.2583 69.7309 23.725L69.1851 23.4284C69.2563 22.7323 69.4264 22.139 69.6953 21.6485C69.9722 21.1581 70.3242 20.7823 70.7514 20.5213C71.1865 20.2523 71.669 20.1178 72.199 20.1178ZM79.5947 27.1661C78.9777 27.1661 78.4516 27.0396 78.0165 26.7864C77.5894 26.5333 77.2611 26.1694 77.0317 25.6948C76.8023 25.2201 76.6876 24.6545 76.6876 23.9979V20.2839H78.2301V23.7606C78.2301 24.4568 78.3883 24.9868 78.7048 25.3506C79.0291 25.7066 79.4919 25.8846 80.0931 25.8846C80.5281 25.8846 80.8999 25.7897 81.2084 25.5998C81.5249 25.41 81.7701 25.141 81.9441 24.793C82.1182 24.437 82.2052 24.0256 82.2052 23.5589L82.7391 23.8556C82.6759 24.5438 82.5018 25.1371 82.217 25.6354C81.9323 26.1259 81.5644 26.5056 81.1135 26.7745C80.6626 27.0356 80.1563 27.1661 79.5947 27.1661ZM82.5967 27L82.2052 24.5794V20.2839H83.7477V24.8167L84.1393 27H82.5967ZM89.4139 26.3118H88.8206L91.5734 20.2839H93.2228L89.9478 27H88.2154L84.9404 20.2839H86.6372L89.4139 26.3118ZM100.301 27L100.04 24.5082L100.349 23.642L100.04 22.7876L100.301 20.2839H101.891L101.535 23.642L101.891 27H100.301ZM100.776 23.642C100.626 24.346 100.376 24.963 100.028 25.493C99.6803 26.023 99.2492 26.4344 98.735 26.7271C98.2287 27.0198 97.6631 27.1661 97.0382 27.1661C96.3816 27.1661 95.8002 27.0198 95.2939 26.7271C94.7877 26.4265 94.3921 26.0112 94.1073 25.4812C93.8226 24.9512 93.6802 24.3381 93.6802 23.642C93.6802 22.9379 93.8226 22.3249 94.1073 21.8028C94.3921 21.2728 94.7877 20.8614 95.2939 20.5687C95.8002 20.2681 96.3816 20.1178 97.0382 20.1178C97.6631 20.1178 98.2287 20.2642 98.735 20.5569C99.2492 20.8495 99.6803 21.2609 100.028 21.7909C100.384 22.313 100.634 22.93 100.776 23.642ZM95.2465 23.642C95.2465 24.0929 95.3374 24.4924 95.5194 24.8404C95.7092 25.1806 95.9663 25.4495 96.2907 25.6473C96.615 25.8371 96.9868 25.9321 97.406 25.9321C97.8332 25.9321 98.2287 25.8371 98.5926 25.6473C98.9565 25.4495 99.2769 25.1806 99.5538 24.8404C99.8385 24.4924 100.064 24.0929 100.23 23.642C100.064 23.1911 99.8385 22.7955 99.5538 22.4554C99.2769 22.1073 98.9565 21.8384 98.5926 21.6485C98.2287 21.4507 97.8332 21.3519 97.406 21.3519C96.9868 21.3519 96.615 21.4507 96.2907 21.6485C95.9663 21.8384 95.7092 22.1073 95.5194 22.4554C95.3374 22.7955 95.2465 23.1911 95.2465 23.642ZM107.588 18.8956C107.042 18.8956 106.635 19.0064 106.366 19.2279C106.105 19.4494 105.974 19.8251 105.974 20.3551V27H104.432V20.545C104.432 19.9754 104.539 19.4771 104.752 19.0499C104.966 18.6227 105.29 18.2905 105.725 18.0532C106.168 17.8158 106.734 17.6972 107.422 17.6972C107.731 17.6972 108.007 17.7249 108.253 17.7803C108.498 17.8356 108.731 17.9068 108.953 17.9938V19.2042C108.747 19.0934 108.534 19.0143 108.312 18.9668C108.091 18.9194 107.849 18.8956 107.588 18.8956ZM102.996 21.9333V20.7467H108.917V21.9333H102.996ZM112.94 18.8956C112.394 18.8956 111.986 19.0064 111.718 19.2279C111.456 19.4494 111.326 19.8251 111.326 20.3551V27H109.783V20.545C109.783 19.9754 109.89 19.4771 110.104 19.0499C110.317 18.6227 110.642 18.2905 111.077 18.0532C111.52 17.8158 112.085 17.6972 112.774 17.6972C113.082 17.6972 113.359 17.7249 113.604 17.7803C113.849 17.8356 114.083 17.9068 114.304 17.9938V19.2042C114.099 19.0934 113.885 19.0143 113.664 18.9668C113.442 18.9194 113.201 18.8956 112.94 18.8956ZM108.348 21.9333V20.7467H114.269V21.9333H108.348ZM121.414 27L121.153 24.5082L121.461 23.642L121.153 22.7876L121.414 20.2839H123.004L122.648 23.642L123.004 27H121.414ZM121.888 23.642C121.738 24.346 121.489 24.963 121.141 25.493C120.793 26.023 120.362 26.4344 119.847 26.7271C119.341 27.0198 118.776 27.1661 118.151 27.1661C117.494 27.1661 116.913 27.0198 116.406 26.7271C115.9 26.4265 115.504 26.0112 115.22 25.4812C114.935 24.9512 114.793 24.3381 114.793 23.642C114.793 22.9379 114.935 22.3249 115.22 21.8028C115.504 21.2728 115.9 20.8614 116.406 20.5687C116.913 20.2681 117.494 20.1178 118.151 20.1178C118.776 20.1178 119.341 20.2642 119.847 20.5569C120.362 20.8495 120.793 21.2609 121.141 21.7909C121.497 22.313 121.746 22.93 121.888 23.642ZM116.359 23.642C116.359 24.0929 116.45 24.4924 116.632 24.8404C116.822 25.1806 117.079 25.4495 117.403 25.6473C117.727 25.8371 118.099 25.9321 118.518 25.9321C118.946 25.9321 119.341 25.8371 119.705 25.6473C120.069 25.4495 120.389 25.1806 120.666 24.8404C120.951 24.4924 121.176 24.0929 121.342 23.642C121.176 23.1911 120.951 22.7955 120.666 22.4554C120.389 22.1073 120.069 21.8384 119.705 21.6485C119.341 21.4507 118.946 21.3519 118.518 21.3519C118.099 21.3519 117.727 21.4507 117.403 21.6485C117.079 21.8384 116.822 22.1073 116.632 22.4554C116.45 22.7955 116.359 23.1911 116.359 23.642ZM132.415 20.2839V28.9579H130.872V24.6268L130.943 24.2115V22.8588L130.872 22.6215V20.2839H132.415ZM131.465 23.642C131.315 24.346 131.066 24.963 130.718 25.493C130.37 26.023 129.939 26.4344 129.424 26.7271C128.918 27.0198 128.353 27.1661 127.728 27.1661C127.071 27.1661 126.49 27.0198 125.983 26.7271C125.477 26.4265 125.082 26.0112 124.797 25.4812C124.512 24.9512 124.37 24.3381 124.37 23.642C124.37 22.9379 124.512 22.3249 124.797 21.8028C125.082 21.2728 125.477 20.8614 125.983 20.5687C126.49 20.2681 127.071 20.1178 127.728 20.1178C128.353 20.1178 128.918 20.2642 129.424 20.5569C129.939 20.8495 130.37 21.2609 130.718 21.7909C131.074 22.313 131.323 22.93 131.465 23.642ZM125.936 23.642C125.936 24.0929 126.027 24.4924 126.209 24.8404C126.399 25.1806 126.656 25.4495 126.98 25.6473C127.304 25.8371 127.676 25.9321 128.095 25.9321C128.523 25.9321 128.918 25.8371 129.282 25.6473C129.646 25.4495 129.966 25.1806 130.243 24.8404C130.528 24.4924 130.753 24.0929 130.919 23.642C130.753 23.1911 130.528 22.7955 130.243 22.4554C129.966 22.1073 129.646 21.8384 129.282 21.6485C128.918 21.4507 128.523 21.3519 128.095 21.3519C127.676 21.3519 127.304 21.4507 126.98 21.6485C126.656 21.8384 126.399 22.1073 126.209 22.4554C126.027 22.7955 125.936 23.1911 125.936 23.642ZM134.291 20.2365L135.062 20.3789L135.834 20.2365V27H134.291V20.2365ZM135.062 19.394C134.77 19.394 134.528 19.3149 134.338 19.1567C134.149 18.9906 134.054 18.777 134.054 18.5159C134.054 18.2549 134.149 18.0453 134.338 17.887C134.528 17.7209 134.77 17.6379 135.062 17.6379C135.363 17.6379 135.604 17.7209 135.786 17.887C135.976 18.0453 136.071 18.2549 136.071 18.5159C136.071 18.777 135.976 18.9906 135.786 19.1567C135.604 19.3149 135.363 19.394 135.062 19.394ZM139.317 29.124C138.922 29.124 138.562 29.0726 138.237 28.9697C137.921 28.8748 137.624 28.7403 137.347 28.5663V27.3916C137.648 27.5814 137.933 27.7199 138.202 27.8069C138.479 27.8939 138.787 27.9374 139.127 27.9374C139.452 27.9374 139.74 27.8623 139.993 27.7119C140.247 27.5696 140.456 27.3164 140.622 26.9525L143.648 20.2839H145.286L141.809 27.4746C141.619 27.8702 141.394 28.1866 141.133 28.4239C140.879 28.6691 140.599 28.8471 140.29 28.9579C139.989 29.0686 139.665 29.124 139.317 29.124ZM140.088 26.7864L137.003 20.2839H138.7L141.619 26.7864H140.088ZM152.364 27L152.102 24.5082L152.411 23.642L152.102 22.7876L152.364 20.2839H153.954L153.598 23.642L153.954 27H152.364ZM152.838 23.642C152.688 24.346 152.439 24.963 152.091 25.493C151.743 26.023 151.311 26.4344 150.797 26.7271C150.291 27.0198 149.725 27.1661 149.1 27.1661C148.444 27.1661 147.862 27.0198 147.356 26.7271C146.85 26.4265 146.454 26.0112 146.17 25.4812C145.885 24.9512 145.742 24.3381 145.742 23.642C145.742 22.9379 145.885 22.3249 146.17 21.8028C146.454 21.2728 146.85 20.8614 147.356 20.5687C147.862 20.2681 148.444 20.1178 149.1 20.1178C149.725 20.1178 150.291 20.2642 150.797 20.5569C151.311 20.8495 151.743 21.2609 152.091 21.7909C152.447 22.313 152.696 22.93 152.838 23.642ZM147.309 23.642C147.309 24.0929 147.4 24.4924 147.582 24.8404C147.771 25.1806 148.029 25.4495 148.353 25.6473C148.677 25.8371 149.049 25.9321 149.468 25.9321C149.895 25.9321 150.291 25.8371 150.655 25.6473C151.019 25.4495 151.339 25.1806 151.616 24.8404C151.901 24.4924 152.126 24.0929 152.292 23.642C152.126 23.1911 151.901 22.7955 151.616 22.4554C151.339 22.1073 151.019 21.8384 150.655 21.6485C150.291 21.4507 149.895 21.3519 149.468 21.3519C149.049 21.3519 148.677 21.4507 148.353 21.6485C148.029 21.8384 147.771 22.1073 147.582 22.4554C147.4 22.7955 147.309 23.1911 147.309 23.642ZM154.916 21.4705V20.7704L156.352 20.4026L156.993 18.5278H157.894V20.2839H161.015V21.4705H157.894V24.3777C157.894 24.9393 158.013 25.3348 158.25 25.5642C158.496 25.7857 158.891 25.8965 159.437 25.8965C159.785 25.8965 160.093 25.8609 160.362 25.7897C160.631 25.7106 160.888 25.5998 161.134 25.4574V26.7271C160.928 26.8299 160.635 26.9288 160.256 27.0237C159.884 27.1187 159.5 27.1661 159.105 27.1661C158.448 27.1661 157.918 27.0593 157.515 26.8457C157.111 26.6242 156.815 26.3236 156.625 25.9439C156.443 25.5563 156.352 25.1133 156.352 24.615V21.4705H154.916ZM162.495 17.8633H164.037V27H162.495V17.8633ZM165.907 20.2365L166.678 20.3789L167.449 20.2365V27H165.907V20.2365ZM166.678 19.394C166.385 19.394 166.144 19.3149 165.954 19.1567C165.765 18.9906 165.67 18.777 165.67 18.5159C165.67 18.2549 165.765 18.0453 165.954 17.887C166.144 17.7209 166.385 17.6379 166.678 17.6379C166.979 17.6379 167.22 17.7209 167.402 17.887C167.592 18.0453 167.687 18.2549 167.687 18.5159C167.687 18.777 167.592 18.9906 167.402 19.1567C167.22 19.3149 166.979 19.394 166.678 19.394ZM180.386 20.2839V28.9579H178.843V24.6268L178.915 24.2115V22.8588L178.843 22.6215V20.2839H180.386ZM179.437 23.642C179.286 24.346 179.037 24.963 178.689 25.493C178.341 26.023 177.91 26.4344 177.396 26.7271C176.889 27.0198 176.324 27.1661 175.699 27.1661C175.042 27.1661 174.461 27.0198 173.955 26.7271C173.448 26.4265 173.053 26.0112 172.768 25.4812C172.483 24.9512 172.341 24.3381 172.341 23.642C172.341 22.9379 172.483 22.3249 172.768 21.8028C173.053 21.2728 173.448 20.8614 173.955 20.5687C174.461 20.2681 175.042 20.1178 175.699 20.1178C176.324 20.1178 176.889 20.2642 177.396 20.5569C177.91 20.8495 178.341 21.2609 178.689 21.7909C179.045 22.313 179.294 22.93 179.437 23.642ZM173.907 23.642C173.907 24.0929 173.998 24.4924 174.18 24.8404C174.37 25.1806 174.627 25.4495 174.951 25.6473C175.276 25.8371 175.647 25.9321 176.067 25.9321C176.494 25.9321 176.889 25.8371 177.253 25.6473C177.617 25.4495 177.938 25.1806 178.214 24.8404C178.499 24.4924 178.725 24.0929 178.891 23.642C178.725 23.1911 178.499 22.7955 178.214 22.4554C177.938 22.1073 177.617 21.8384 177.253 21.6485C176.889 21.4507 176.494 21.3519 176.067 21.3519C175.647 21.3519 175.276 21.4507 174.951 21.6485C174.627 21.8384 174.37 22.1073 174.18 22.4554C173.998 22.7955 173.907 23.1911 173.907 23.642ZM185.976 27.1661C185.162 27.1661 184.446 27.0198 183.829 26.7271C183.219 26.4265 182.741 26.0112 182.393 25.4812C182.053 24.9512 181.883 24.3381 181.883 23.642C181.883 22.9379 182.053 22.3249 182.393 21.8028C182.741 21.2728 183.219 20.8614 183.829 20.5687C184.446 20.2681 185.162 20.1178 185.976 20.1178C186.791 20.1178 187.503 20.2681 188.112 20.5687C188.729 20.8614 189.208 21.2728 189.548 21.8028C189.896 22.3249 190.07 22.9379 190.07 23.642C190.07 24.3381 189.896 24.9512 189.548 25.4812C189.208 26.0112 188.729 26.4265 188.112 26.7271C187.503 27.0198 186.791 27.1661 185.976 27.1661ZM185.976 25.9558C186.498 25.9558 186.945 25.8609 187.317 25.671C187.697 25.4812 187.99 25.2162 188.195 24.876C188.401 24.528 188.504 24.1166 188.504 23.642C188.504 23.1673 188.401 22.7599 188.195 22.4198C187.99 22.0717 187.697 21.8028 187.317 21.6129C186.945 21.4231 186.498 21.3281 185.976 21.3281C185.462 21.3281 185.015 21.4231 184.635 21.6129C184.256 21.8028 183.963 22.0717 183.757 22.4198C183.552 22.7599 183.449 23.1673 183.449 23.642C183.449 24.1166 183.552 24.528 183.757 24.876C183.963 25.2162 184.256 25.4812 184.635 25.671C185.015 25.8609 185.462 25.9558 185.976 25.9558ZM191.013 21.3875L191.962 19.3228L192.045 19.8805C191.871 19.8805 191.709 19.837 191.559 19.75C191.416 19.663 191.301 19.5483 191.214 19.4059C191.127 19.2635 191.084 19.1092 191.084 18.9431C191.084 18.7691 191.127 18.6109 191.214 18.4685C191.301 18.3261 191.416 18.2153 191.559 18.1362C191.709 18.0492 191.871 18.0057 192.045 18.0057C192.227 18.0057 192.389 18.0492 192.532 18.1362C192.674 18.2153 192.789 18.33 192.876 18.4803C192.963 18.6227 193.006 18.7888 193.006 18.9787C193.006 19.1527 192.967 19.3386 192.887 19.5364C192.816 19.7342 192.682 19.9952 192.484 20.3195L191.843 21.3875H191.013ZM194.464 17.8633H196.006V27H194.464V17.8633ZM197.876 17.8633H199.419V27H197.876V17.8633ZM207.554 27L207.293 24.5082L207.601 23.642L207.293 22.7876L207.554 20.2839H209.144L208.788 23.642L209.144 27H207.554ZM208.028 23.642C207.878 24.346 207.629 24.963 207.281 25.493C206.933 26.023 206.501 26.4344 205.987 26.7271C205.481 27.0198 204.915 27.1661 204.29 27.1661C203.634 27.1661 203.052 27.0198 202.546 26.7271C202.04 26.4265 201.644 26.0112 201.36 25.4812C201.075 24.9512 200.932 24.3381 200.932 23.642C200.932 22.9379 201.075 22.3249 201.36 21.8028C201.644 21.2728 202.04 20.8614 202.546 20.5687C203.052 20.2681 203.634 20.1178 204.29 20.1178C204.915 20.1178 205.481 20.2642 205.987 20.5569C206.501 20.8495 206.933 21.2609 207.281 21.7909C207.637 22.313 207.886 22.93 208.028 23.642ZM202.499 23.642C202.499 24.0929 202.59 24.4924 202.772 24.8404C202.961 25.1806 203.219 25.4495 203.543 25.6473C203.867 25.8371 204.239 25.9321 204.658 25.9321C205.085 25.9321 205.481 25.8371 205.845 25.6473C206.209 25.4495 206.529 25.1806 206.806 24.8404C207.091 24.4924 207.316 24.0929 207.482 23.642C207.316 23.1911 207.091 22.7955 206.806 22.4554C206.529 22.1073 206.209 21.8384 205.845 21.6485C205.481 21.4507 205.085 21.3519 204.658 21.3519C204.239 21.3519 203.867 21.4507 203.543 21.6485C203.219 21.8384 202.961 22.1073 202.772 22.4554C202.59 22.7955 202.499 23.1911 202.499 23.642ZM210.545 20.2839H212.088L212.491 22.7046V27H210.948V22.4791L210.545 20.2839ZM215.161 20.1178C215.794 20.1178 216.332 20.2444 216.775 20.4975C217.218 20.7507 217.554 21.1145 217.783 21.5892C218.021 22.0559 218.139 22.6215 218.139 23.286V27H216.597V23.5352C216.597 22.8311 216.43 22.3011 216.098 21.9452C215.774 21.5813 215.295 21.3993 214.662 21.3993C214.227 21.3993 213.844 21.4982 213.511 21.696C213.187 21.8858 212.934 22.1548 212.752 22.5029C212.578 22.8509 212.491 23.2583 212.491 23.725L211.945 23.4284C212.016 22.7323 212.198 22.139 212.491 21.6485C212.784 21.1581 213.159 20.7823 213.618 20.5213C214.077 20.2523 214.591 20.1178 215.161 20.1178ZM226.02 25.3506V24.1641L226.079 23.9505V22.6571L226.02 22.4198V20.2839H227.563V25.2083C227.563 26.0705 227.381 26.7904 227.017 27.3678C226.653 27.9532 226.155 28.3923 225.522 28.6849C224.889 28.9776 224.161 29.124 223.338 29.124C222.737 29.124 222.183 29.0449 221.677 28.8867C221.171 28.7285 220.68 28.4872 220.206 28.1629V26.8813C220.688 27.261 221.187 27.5261 221.701 27.6764C222.215 27.8346 222.729 27.9137 223.243 27.9137C224.145 27.9137 224.833 27.6922 225.308 27.2492C225.783 26.8062 226.02 26.1733 226.02 25.3506ZM222.793 26.4779C222.175 26.4779 221.622 26.3474 221.131 26.0863C220.641 25.8174 220.253 25.4456 219.968 24.9709C219.684 24.4963 219.541 23.9386 219.541 23.2979C219.541 22.6571 219.684 22.0994 219.968 21.6248C220.253 21.1501 220.641 20.7823 221.131 20.5213C221.622 20.2523 222.175 20.1178 222.793 20.1178C223.251 20.1178 223.675 20.189 224.062 20.3314C224.458 20.4738 224.81 20.6636 225.118 20.901C225.435 21.1304 225.7 21.3875 225.913 21.6722C226.135 21.9491 226.305 22.2339 226.423 22.5266C226.542 22.8114 226.601 23.0724 226.601 23.3097C226.601 23.6182 226.51 23.9584 226.329 24.3302C226.147 24.6941 225.886 25.0382 225.545 25.3625C225.213 25.6868 224.814 25.9558 224.347 26.1694C223.88 26.3751 223.362 26.4779 222.793 26.4779ZM223.267 25.3388C223.829 25.3388 224.343 25.1766 224.81 24.8523C225.284 24.528 225.708 24.0098 226.079 23.2979C225.708 22.5701 225.284 22.048 224.81 21.7316C224.343 21.4072 223.829 21.2451 223.267 21.2451C222.808 21.2451 222.417 21.3321 222.092 21.5061C221.768 21.6802 221.519 21.9214 221.345 22.2299C221.179 22.5384 221.096 22.8944 221.096 23.2979C221.096 23.6934 221.179 24.0454 221.345 24.3539C221.519 24.6624 221.768 24.9037 222.092 25.0777C222.417 25.2518 222.808 25.3388 223.267 25.3388ZM235.67 27L235.409 24.5082L235.718 23.642L235.409 22.7876L235.67 20.2839H237.26L236.905 23.642L237.26 27H235.67ZM236.145 23.642C235.995 24.346 235.746 24.963 235.398 25.493C235.049 26.023 234.618 26.4344 234.104 26.7271C233.598 27.0198 233.032 27.1661 232.407 27.1661C231.751 27.1661 231.169 27.0198 230.663 26.7271C230.157 26.4265 229.761 26.0112 229.477 25.4812C229.192 24.9512 229.049 24.3381 229.049 23.642C229.049 22.9379 229.192 22.3249 229.477 21.8028C229.761 21.2728 230.157 20.8614 230.663 20.5687C231.169 20.2681 231.751 20.1178 232.407 20.1178C233.032 20.1178 233.598 20.2642 234.104 20.5569C234.618 20.8495 235.049 21.2609 235.398 21.7909C235.754 22.313 236.003 22.93 236.145 23.642ZM230.616 23.642C230.616 24.0929 230.707 24.4924 230.889 24.8404C231.078 25.1806 231.335 25.4495 231.66 25.6473C231.984 25.8371 232.356 25.9321 232.775 25.9321C233.202 25.9321 233.598 25.8371 233.962 25.6473C234.326 25.4495 234.646 25.1806 234.923 24.8404C235.208 24.4924 235.433 24.0929 235.599 23.642C235.433 23.1911 235.208 22.7955 234.923 22.4554C234.646 22.1073 234.326 21.8384 233.962 21.6485C233.598 21.4507 233.202 21.3519 232.775 21.3519C232.356 21.3519 231.984 21.4507 231.66 21.6485C231.335 21.8384 231.078 22.1073 230.889 22.4554C230.707 22.7955 230.616 23.1911 230.616 23.642ZM238.662 20.2839H240.205L240.608 22.7046V27H239.065V22.4791L238.662 20.2839ZM243.278 20.1178C243.911 20.1178 244.449 20.2444 244.892 20.4975C245.335 20.7507 245.671 21.1145 245.9 21.5892C246.137 22.0559 246.256 22.6215 246.256 23.286V27H244.714V23.5352C244.714 22.8311 244.547 22.3011 244.215 21.9452C243.891 21.5813 243.412 21.3993 242.779 21.3993C242.344 21.3993 241.961 21.4982 241.628 21.696C241.304 21.8858 241.051 22.1548 240.869 22.5029C240.695 22.8509 240.608 23.2583 240.608 23.725L240.062 23.4284C240.133 22.7323 240.315 22.139 240.608 21.6485C240.901 21.1581 241.276 20.7823 241.735 20.5213C242.194 20.2523 242.708 20.1178 243.278 20.1178Z" fill="#033E8E"/>
<path d="M50.5743 59.7163C50.5743 60.664 50.7457 61.4705 51.0885 62.136C51.4313 62.8014 51.9455 63.3256 52.631 63.7088C53.3166 64.0717 54.1736 64.2532 55.202 64.2532C56.2707 64.2532 57.1478 64.0717 57.8334 63.7088C58.519 63.3458 59.0231 62.8316 59.3457 62.1662C59.6885 61.4806 59.8599 60.664 59.8599 59.7163V47.3153H66.9073V60.1095C66.9073 62.1864 66.4234 64.0112 65.4555 65.584C64.4876 67.1367 63.1265 68.3465 61.3722 69.2136C59.6179 70.0807 57.5612 70.5142 55.202 70.5142C52.8831 70.5142 50.8465 70.0807 49.0922 69.2136C47.3379 68.3465 45.9668 67.1367 44.9787 65.584C44.0108 64.0112 43.5269 62.1864 43.5269 60.1095V47.3153H50.5743V59.7163ZM91.5819 64.9791L89.5554 65.4026V47.3153H96.3911V70H87.5591L75.3699 51.9127L77.3661 51.4893V70H70.5607V47.3153H79.6649L91.5819 64.9791ZM100.305 47.3153H107.352V70H100.305V47.3153ZM125.237 66.7939H122.303L130.712 47.3153H138.092L127.687 70H119.672L109.267 47.3153H116.798L125.237 66.7939ZM159.844 56.1774V61.1378H142.997V56.1774H159.844ZM147.806 58.6576L146.384 67.4291L143.632 64.3742H160.903V70H139.398L141.091 58.6576L139.398 47.3153H160.751V52.9411H143.632L146.384 49.8862L147.806 58.6576ZM169.182 57.1151H177.107C177.994 57.1151 178.679 56.9134 179.163 56.5101C179.668 56.1069 179.92 55.5221 179.92 54.7559C179.92 53.9896 179.668 53.4049 179.163 53.0016C178.679 52.5983 177.994 52.3966 177.107 52.3966H168.184L171.36 49.13V70H164.312V47.3153H178.165C179.92 47.3153 181.462 47.6278 182.793 48.2529C184.124 48.878 185.162 49.7451 185.908 50.8541C186.654 51.9631 187.027 53.2637 187.027 54.7559C187.027 56.2077 186.654 57.4982 185.908 58.6274C185.162 59.7364 184.124 60.6035 182.793 61.2286C181.462 61.8335 179.92 62.136 178.165 62.136H169.182V57.1151ZM172.207 59.3835H180.041L187.844 70H179.768L172.207 59.3835ZM189.399 62.5594H196.537C196.617 63.0837 196.87 63.5475 197.293 63.9507C197.737 64.3339 198.331 64.6363 199.078 64.8581C199.824 65.0598 200.701 65.1606 201.709 65.1606C203.1 65.1606 204.179 64.9993 204.945 64.6766C205.732 64.354 206.125 63.86 206.125 63.1946C206.125 62.7308 205.903 62.3578 205.46 62.0755C205.016 61.773 204.139 61.5714 202.828 61.4705L198.836 61.1378C195.569 60.8959 193.2 60.1901 191.728 59.0206C190.276 57.8309 189.55 56.2379 189.55 54.2417C189.55 52.6084 190.024 51.2473 190.972 50.1584C191.919 49.0494 193.24 48.2126 194.934 47.648C196.628 47.0834 198.624 46.8011 200.923 46.8011C203.141 46.8011 205.107 47.1136 206.821 47.7387C208.555 48.3638 209.926 49.251 210.934 50.4004C211.962 51.5296 212.527 52.8503 212.628 54.3627H205.49C205.409 53.919 205.177 53.5359 204.794 53.2133C204.431 52.8705 203.907 52.6084 203.221 52.4269C202.536 52.2454 201.719 52.1547 200.771 52.1547C199.521 52.1547 198.523 52.3059 197.777 52.6084C197.051 52.9108 196.688 53.3645 196.688 53.9695C196.688 54.4131 196.9 54.776 197.323 55.0583C197.767 55.3406 198.573 55.5322 199.743 55.633L204.129 55.996C206.306 56.1573 208.061 56.5001 209.392 57.0243C210.743 57.5284 211.72 58.2241 212.325 59.1113C212.93 59.9784 213.233 61.0773 213.233 62.4082C213.233 64.0213 212.749 65.4429 211.781 66.6729C210.813 67.8828 209.452 68.8305 207.698 69.5161C205.964 70.1815 203.927 70.5142 201.588 70.5142C199.188 70.5142 197.081 70.1815 195.266 69.5161C193.452 68.8506 192.03 67.9231 191.002 66.7334C189.973 65.5235 189.439 64.1322 189.399 62.5594ZM219.987 65.9167V60.2909H235.534V65.9167H219.987ZM232.539 47.3153L242.702 70H235.171L226.944 50.3701H228.849L220.592 70H213.091L223.224 47.3153H232.539ZM251.672 47.3153V66.8846L248.496 63.739H265.404V70H244.625V47.3153H251.672ZM8.58545 92.5594H15.7236C15.8042 93.0837 16.0563 93.5475 16.4797 93.9507C16.9233 94.3339 17.5182 94.6363 18.2643 94.8581C19.0103 95.0598 19.8875 95.1606 20.8957 95.1606C22.287 95.1606 23.3658 94.9993 24.1321 94.6766C24.9185 94.354 25.3117 93.86 25.3117 93.1946C25.3117 92.7308 25.0899 92.3578 24.6462 92.0755C24.2026 91.773 23.3255 91.5714 22.0148 91.4705L18.0223 91.1378C14.7557 90.8959 12.3864 90.1901 10.9144 89.0206C9.46259 87.8309 8.73668 86.2379 8.73668 84.2417C8.73668 82.6084 9.21054 81.2473 10.1583 80.1584C11.106 79.0494 12.4267 78.2126 14.1205 77.648C15.8143 77.0834 17.8106 76.8011 20.1093 76.8011C22.3274 76.8011 24.2934 77.1136 26.0073 77.7387C27.7414 78.3638 29.1126 79.251 30.1208 80.4004C31.1492 81.5296 31.7138 82.8503 31.8146 84.3627H24.6765C24.5958 83.919 24.3639 83.5359 23.9808 83.2133C23.6179 82.8705 23.0936 82.6084 22.408 82.4269C21.7224 82.2454 20.9058 82.1547 19.9581 82.1547C18.7079 82.1547 17.7098 82.3059 16.9637 82.6084C16.2378 82.9108 15.8748 83.3645 15.8748 83.9695C15.8748 84.4131 16.0865 84.776 16.51 85.0583C16.9536 85.3406 17.7602 85.5322 18.9297 85.633L23.3154 85.996C25.4931 86.1573 27.2474 86.5001 28.5783 87.0243C29.9293 87.5284 30.9072 88.2241 31.5122 89.1113C32.1171 89.9784 32.4195 91.0773 32.4195 92.4082C32.4195 94.0213 31.9356 95.4429 30.9677 96.6729C29.9998 97.8828 28.6388 98.8305 26.8845 99.5161C25.1503 100.181 23.1138 100.514 20.7747 100.514C18.3752 100.514 16.268 100.181 14.4532 99.5161C12.6385 98.8506 11.2169 97.9231 10.1885 96.7334C9.16013 95.5235 8.62578 94.1322 8.58545 92.5594ZM41.6759 80.3701H48.7232V100H41.6759V80.3701ZM33.2674 77.3153H57.1317V83.5763H33.2674V77.3153ZM61.0907 95.9167V90.2909H76.6373V95.9167H61.0907ZM73.6429 77.3153L83.8057 100H76.2743L68.0473 80.3701H69.9529L61.6956 100H54.1945L64.327 77.3153H73.6429ZM106.749 94.9791L104.723 95.4026V77.3153H111.559V100H102.727L90.5374 81.9127L92.5336 81.4893V100H85.7282V77.3153H94.8323L106.749 94.9791ZM127.147 77.3153C129.87 77.3153 132.249 77.7891 134.286 78.7368C136.342 79.6644 137.935 80.9751 139.064 82.6689C140.214 84.3627 140.789 86.3589 140.789 88.6576C140.789 90.9362 140.214 92.9324 139.064 94.6464C137.935 96.3402 136.342 97.661 134.286 98.6087C132.249 99.5362 129.87 100 127.147 100H115.472V77.3153H127.147ZM122.459 96.9451L119.223 93.739H127.692C128.922 93.739 129.981 93.5374 130.868 93.1341C131.775 92.7106 132.471 92.1158 132.955 91.3496C133.439 90.5833 133.681 89.686 133.681 88.6576C133.681 87.6091 133.439 86.7118 132.955 85.9657C132.471 85.1995 131.775 84.6147 130.868 84.2114C129.981 83.788 128.922 83.5763 127.692 83.5763H119.223L122.459 80.3701V96.9451ZM147.222 95.9167V90.2909H162.768V95.9167H147.222ZM159.774 77.3153L169.937 100H162.405L154.178 80.3701H156.084L147.827 100H140.326L150.458 77.3153H159.774ZM176.729 87.1151H184.653C185.541 87.1151 186.226 86.9134 186.71 86.5101C187.214 86.1069 187.466 85.5221 187.466 84.7559C187.466 83.9896 187.214 83.4049 186.71 83.0016C186.226 82.5983 185.541 82.3966 184.653 82.3966H175.731L178.907 79.13V100H171.859V77.3153H185.712C187.466 77.3153 189.009 77.6278 190.34 78.2529C191.671 78.878 192.709 79.7451 193.455 80.8541C194.201 81.9631 194.574 83.2637 194.574 84.7559C194.574 86.2077 194.201 87.4982 193.455 88.6274C192.709 89.7364 191.671 90.6035 190.34 91.2286C189.009 91.8335 187.466 92.136 185.712 92.136H176.729V87.1151ZM179.754 89.3835H187.587L195.391 100H187.315L179.754 89.3835ZM204.427 80.3701H211.474V100H204.427V80.3701ZM196.019 77.3153H219.883V83.5763H196.019V77.3153ZM229.504 77.3153V96.8846L226.328 93.739H243.236V100H222.457V77.3153H229.504ZM250.721 95.9167V90.2909H266.267V95.9167H250.721ZM263.273 77.3153L273.436 100H265.905L257.678 80.3701H259.583L251.326 100H243.825L253.957 77.3153H263.273ZM280.228 87.1151H288.153C289.04 87.1151 289.725 86.9134 290.209 86.5101C290.713 86.1069 290.965 85.5221 290.965 84.7559C290.965 83.9896 290.713 83.4049 290.209 83.0016C289.725 82.5983 289.04 82.3966 288.153 82.3966H279.23L282.406 79.13V100H275.358V77.3153H289.211C290.965 77.3153 292.508 77.6278 293.839 78.2529C295.17 78.878 296.208 79.7451 296.954 80.8541C297.7 81.9631 298.073 83.2637 298.073 84.7559C298.073 86.2077 297.7 87.4982 296.954 88.6274C296.208 89.7364 295.17 90.6035 293.839 91.2286C292.508 91.8335 290.965 92.136 289.211 92.136H280.228V87.1151ZM283.253 89.3835H291.086L298.89 100H290.814L283.253 89.3835Z" fill="#0271FF"/>
</svg>
